<?xml version="1.0" encoding="utf-8"?>
<!-- Generator: Adobe Illustrator 21.1.0, SVG Export Plug-In . SVG Version: 6.00 Build 0)  -->
<svg version="1.1" id="Layer_1" xmlns="http://www.w3.org/2000/svg" xmlns:xlink="http://www.w3.org/1999/xlink" x="0px" y="0px"
	 viewBox="0 0 176.6 176.6" style="enable-background:new 0 0 176.6 176.6;" xml:space="preserve">
<style type="text/css">
	.st0{fill:#FFFFFF;}
</style>
<title>Logo (GP)</title>
<g>
	<path class="st0" d="M176.6,176.6H0V0h176.6V176.6z M0.4,176.3h175.9V0.4H0.4V176.3z"/>
</g>
<g>
	<path class="st0" d="M26.2,99l-0.7,0.7c-0.5-0.5-1.1-0.9-1.7-1.2c-0.6-0.3-1.3-0.4-1.9-0.4c-0.7,0-1.5,0.2-2.1,0.6
		s-1.2,0.9-1.6,1.5s-0.6,1.3-0.6,2s0.2,1.4,0.6,2s0.9,1.2,1.6,1.5c0.7,0.4,1.4,0.6,2.2,0.6c1,0,1.8-0.3,2.5-0.8
		c0.7-0.6,1.1-1.3,1.2-2.2h-3v-0.9h4.1c0,1.5-0.4,2.6-1.3,3.5s-2,1.3-3.5,1.3c-1.8,0-3.2-0.6-4.2-1.8c-0.8-0.9-1.2-2-1.2-3.2
		c0-0.9,0.2-1.7,0.7-2.5s1.1-1.4,1.9-1.8s1.7-0.7,2.7-0.7c0.8,0,1.6,0.1,2.3,0.4C24.8,97.8,25.5,98.3,26.2,99z"/>
	<path class="st0" d="M31.9,97.4l4.5,9.5h-1l-1.5-3.1h-4.1l-1.5,3.1h-1.1l4.5-9.5H31.9z M31.8,99.4l-1.6,3.5h3.3L31.8,99.4z"/>
	<path class="st0" d="M37.9,97.4h1.9c1.1,0,1.8,0,2.2,0.1c0.6,0.1,1,0.4,1.4,0.8s0.5,1,0.5,1.6c0,0.5-0.1,1-0.4,1.4
		c-0.2,0.4-0.6,0.7-1,0.9s-1.1,0.3-1.9,0.3l3.4,4.4h-1.2l-3.4-4.4h-0.5v4.4h-1V97.4z M38.9,98.3v3.2h1.6c0.6,0,1.1-0.1,1.4-0.2
		c0.3-0.1,0.5-0.3,0.7-0.6c0.2-0.3,0.3-0.6,0.3-0.9s-0.1-0.6-0.3-0.9s-0.4-0.4-0.7-0.6c-0.3-0.1-0.8-0.2-1.4-0.2h-1.6V98.3z"/>
	<path class="st0" d="M54.8,99.1L54,99.7c-0.4-0.5-0.9-1-1.5-1.2c-0.6-0.3-1.2-0.4-1.9-0.4c-0.8,0-1.5,0.2-2.1,0.5s-1.2,0.9-1.5,1.5
		c-0.4,0.6-0.5,1.3-0.5,2.1c0,1.2,0.4,2.1,1.2,2.9s1.8,1.2,3,1.2c1.3,0,2.5-0.5,3.4-1.6l0.8,0.6c-0.5,0.6-1.1,1.1-1.8,1.4
		s-1.5,0.5-2.4,0.5c-1.7,0-3-0.6-4-1.7c-0.8-0.9-1.2-2.1-1.2-3.4c0-1.4,0.5-2.6,1.5-3.5c1-1,2.2-1.4,3.7-1.4c0.9,0,1.7,0.2,2.4,0.5
		S54.3,98.5,54.8,99.1z"/>
	<path class="st0" d="M57.8,94.6h1.4l-1.9,2h-0.9L57.8,94.6z M56.8,97.4h1v9.5h-1V97.4z"/>
	<path class="st0" d="M63.9,97.4l4.5,9.5h-1l-1.5-3.1h-4.1l-1.5,3.1h-1.1l4.5-9.5H63.9z M63.8,99.4l-1.6,3.5h3.3L63.8,99.4z"/>
	<path class="st0" d="M73.5,106.9v-9.5h2c1.4,0,2.5,0.1,3.1,0.3c0.9,0.3,1.6,0.9,2.2,1.7c0.5,0.8,0.8,1.8,0.8,2.9
		c0,1-0.2,1.8-0.6,2.5s-0.9,1.3-1.6,1.6s-1.6,0.5-2.8,0.5H73.5z M74.4,106h1.1c1.3,0,2.2-0.1,2.7-0.2c0.7-0.2,1.3-0.7,1.7-1.3
		s0.6-1.3,0.6-2.2c0-0.9-0.2-1.7-0.7-2.4c-0.4-0.7-1.1-1.1-1.9-1.3c-0.6-0.2-1.6-0.3-3-0.3h-0.7v7.7H74.4z"/>
	<path class="st0" d="M83.4,97.4h5.5v0.9h-4.5v3h4.5v0.9h-4.5v3.7h4.5v0.9h-5.4L83.4,97.4L83.4,97.4z"/>
	<path class="st0" d="M95,97.4h1.9c1.1,0,1.8,0,2.2,0.1c0.5,0.1,1,0.4,1.3,0.8s0.5,0.9,0.5,1.6c0,0.6-0.2,1.2-0.5,1.6
		s-0.8,0.7-1.4,0.8c-0.4,0.1-1.2,0.2-2.4,0.2h-0.7v4.4h-1L95,97.4L95,97.4z M95.9,98.3v3.2h1.6c0.7,0,1.1-0.1,1.4-0.2
		s0.5-0.3,0.7-0.6s0.3-0.6,0.3-0.9s-0.1-0.6-0.3-0.9c-0.2-0.3-0.4-0.5-0.7-0.6s-0.7-0.2-1.4-0.2h-1.6V98.3z"/>
	<path class="st0" d="M104.9,97.4l4.5,9.5h-1l-1.5-3.1h-4.1l-1.5,3.1h-1.1l4.5-9.5H104.9z M104.8,99.4l-1.6,3.5h3.3L104.8,99.4z"/>
	<path class="st0" d="M110.9,97.4h1.9c1.1,0,1.8,0,2.2,0.1c0.6,0.1,1,0.4,1.4,0.8s0.5,1,0.5,1.6c0,0.5-0.1,1-0.4,1.4
		c-0.2,0.4-0.6,0.7-1,0.9s-1.1,0.3-1.9,0.3l3.4,4.4h-1.2l-3.4-4.4h-0.5v4.4h-1V97.4z M111.8,98.3v3.2h1.6c0.6,0,1.1-0.1,1.4-0.2
		s0.5-0.3,0.7-0.6c0.2-0.3,0.3-0.6,0.3-0.9s-0.1-0.6-0.3-0.9c-0.2-0.3-0.4-0.4-0.7-0.6c-0.3-0.1-0.8-0.2-1.4-0.2h-1.6V98.3z"/>
	<path class="st0" d="M119.1,97.4h5.5v0.9h-4.5v3h4.5v0.9h-4.5v3.7h4.5v0.9h-5.4L119.1,97.4L119.1,97.4z"/>
	<path class="st0" d="M126.8,106.9v-9.5h2c1.4,0,2.5,0.1,3.1,0.3c0.9,0.3,1.6,0.9,2.2,1.7c0.5,0.8,0.8,1.8,0.8,2.9
		c0,1-0.2,1.8-0.6,2.5s-0.9,1.3-1.6,1.6s-1.6,0.5-2.8,0.5H126.8z M127.7,106h1.1c1.3,0,2.2-0.1,2.7-0.2c0.7-0.2,1.3-0.7,1.7-1.3
		s0.6-1.3,0.6-2.2c0-0.9-0.2-1.7-0.7-2.4c-0.4-0.7-1.1-1.1-1.9-1.3c-0.6-0.2-1.6-0.3-3-0.3h-0.7v7.7H127.7z"/>
	<path class="st0" d="M136.4,97.4h5.5v0.9h-4.5v3h4.5v0.9h-4.5v3.7h4.5v0.9h-5.4v-9.4H136.4z"/>
	<path class="st0" d="M143.3,105.1l0.8-0.5c0.6,1.1,1.2,1.6,2,1.6c0.3,0,0.6-0.1,0.9-0.2s0.5-0.3,0.6-0.6c0.1-0.3,0.2-0.5,0.2-0.8
		s-0.1-0.6-0.3-0.9c-0.3-0.4-0.8-0.9-1.6-1.5s-1.3-1-1.5-1.3c-0.3-0.5-0.5-0.9-0.5-1.5c0-0.4,0.1-0.8,0.3-1.1
		c0.2-0.3,0.5-0.6,0.8-0.8c0.4-0.2,0.8-0.3,1.2-0.3c0.5,0,0.9,0.1,1.3,0.3s0.8,0.6,1.2,1.2l-0.8,0.6c-0.4-0.5-0.7-0.8-0.9-0.9
		s-0.5-0.2-0.8-0.2c-0.4,0-0.7,0.1-0.9,0.4s-0.4,0.5-0.4,0.9c0,0.2,0,0.4,0.1,0.6s0.2,0.4,0.5,0.6c0.1,0.1,0.5,0.4,1.2,1
		c0.8,0.6,1.4,1.2,1.7,1.6c0.3,0.5,0.5,1,0.5,1.4c0,0.7-0.3,1.3-0.8,1.8s-1.2,0.8-1.9,0.8c-0.6,0-1.1-0.2-1.6-0.5
		C144.2,106.4,143.7,105.8,143.3,105.1z"/>
	<path class="st0" d="M159.1,97.1h0.2v6.7h1.2v0.9h-1.2v2.2h-0.9v-2.2h-4.6L159.1,97.1z M158.4,103.8v-4l-2.8,4H158.4z"/>
</g>
<g>
	<path class="st0" d="M28.9,126.1c0.1,0,0.2,0,0.3-0.1c0.1-0.1,0.1-0.1,0.1-0.2s0-0.2,0-0.4v-2.5c0-0.2,0-0.3,0-0.4h-0.4v-0.3h2.8v1
		h-0.2c0-0.3-0.1-0.5-0.2-0.6s-0.3-0.2-0.6-0.2h-0.5c-0.1,0-0.2,0-0.3,0.1c-0.1,0-0.1,0.1-0.1,0.2s0,0.2,0,0.4v0.9h1.1v-0.5h0.3v1.2
		H31c0-0.1,0-0.2-0.1-0.3c0-0.1-0.1-0.1-0.2-0.1s-0.2,0-0.3,0h-0.2h-0.4v1.3c0,0.2,0,0.3,0,0.4h1.1c0.3,0,0.5-0.1,0.6-0.2
		s0.2-0.4,0.2-0.7h0.2v1.1h-3C28.9,126.2,28.9,126.1,28.9,126.1z"/>
	<path class="st0" d="M33.6,126.1c0.1,0,0.2,0,0.3-0.1s0.1-0.1,0.1-0.2s0-0.2,0-0.4v-2.5c0-0.2,0-0.3,0-0.4h-0.4v-0.3h1.3v0.2
		c-0.1,0-0.2,0-0.3,0.1s-0.1,0.1-0.1,0.2s0,0.2,0,0.4v2.5c0,0.2,0,0.3,0,0.4h1.1c0.2,0,0.4-0.1,0.6-0.2c0.1-0.2,0.2-0.4,0.2-0.7h0.2
		v1.2h-2.8v-0.2H33.6z"/>
	<path class="st0" d="M40.7,126.1c0.1,0,0.2,0,0.3-0.1s0.1-0.1,0.1-0.2s0-0.2,0-0.4v-2.5c0-0.2,0-0.3,0-0.4h-0.4v-0.3h2.8v1h-0.2
		c0-0.3-0.1-0.5-0.2-0.6c-0.1-0.1-0.3-0.2-0.6-0.2H42c-0.1,0-0.2,0-0.3,0.1c-0.1,0-0.1,0.1-0.1,0.2s0,0.2,0,0.4v0.9h1.1v-0.5H43v1.2
		h-0.2c0-0.1,0-0.2-0.1-0.3c0-0.1-0.1-0.1-0.2-0.1c-0.1,0-0.2,0-0.3,0H42h-0.4v1.3c0,0.2,0,0.3,0,0.4h1.1c0.3,0,0.5-0.1,0.6-0.2
		s0.2-0.4,0.2-0.7h0.2v1.1h-3C40.7,126.2,40.7,126.1,40.7,126.1z"/>
	<path class="st0" d="M46.1,123L46.1,123v2.5c0,0.3,0,0.4,0,0.6h0.4v0.3h-1.1v-0.2c0.2,0,0.3,0,0.3-0.1s0.1-0.2,0.1-0.3v-3.1h-0.4
		v-0.3h0.7l2.4,3.3l0,0v-2.6c0-0.2,0-0.3,0-0.4h-0.4v-0.3h1.1v0.2c-0.1,0-0.2,0-0.3,0.1s-0.1,0.1-0.1,0.2s0,0.2,0,0.3v0.2v3.2h-0.3
		L46.1,123z"/>
	<path class="st0" d="M51.9,126.1c-0.3-0.2-0.5-0.4-0.7-0.7c-0.2-0.3-0.2-0.7-0.2-1c0-0.4,0.1-0.7,0.2-1.1c0.2-0.3,0.4-0.6,0.7-0.8
		s0.7-0.3,1.1-0.3c0.4,0,0.8,0.1,1.2,0.4v-0.3h0.3v1.3h-0.2c0-0.4-0.2-0.6-0.4-0.8c-0.2-0.2-0.5-0.3-0.8-0.3s-0.5,0.1-0.7,0.2
		c-0.2,0.2-0.4,0.4-0.5,0.6c-0.1,0.3-0.2,0.6-0.2,1s0.1,0.7,0.2,0.9c0.1,0.3,0.3,0.5,0.6,0.6c0.2,0.2,0.5,0.2,0.8,0.2
		s0.5-0.1,0.7-0.2s0.4-0.3,0.6-0.5l0.1,0.1c-0.2,0.3-0.5,0.5-0.8,0.7s-0.6,0.2-0.9,0.2C52.5,126.4,52.2,126.3,51.9,126.1z"/>
	<path class="st0" d="M57,126.2c-0.2-0.1-0.4-0.4-0.5-0.7s-0.2-0.7-0.2-1.2v-1.2c0-0.2,0-0.5,0-0.7h-0.4v-0.2h1.3v0.2
		c-0.2,0-0.3,0-0.3,0.1s-0.1,0.2-0.1,0.3v1.4c0,0.3,0,0.6,0.1,0.9s0.2,0.4,0.4,0.6s0.4,0.2,0.8,0.2c0.4,0,0.7-0.1,0.9-0.4
		s0.3-0.6,0.3-1.1v-1.6c0-0.2,0-0.3,0-0.4h-0.4v-0.3H60v0.2c-0.1,0-0.2,0-0.3,0.1s-0.1,0.1-0.1,0.2s0,0.2,0,0.4v1.3
		c0,0.6-0.1,1-0.4,1.4s-0.6,0.5-1.2,0.5C57.6,126.4,57.3,126.3,57,126.2z"/>
	<path class="st0" d="M61.6,126.1c0.1,0,0.2,0,0.3-0.1s0.1-0.1,0.1-0.2s0-0.2,0-0.4v-2.5c0-0.2,0-0.3,0-0.4h-0.4v-0.3h2.8v1h-0.2
		c0-0.3-0.1-0.5-0.2-0.6c-0.1-0.1-0.3-0.2-0.6-0.2h-0.5c-0.1,0-0.2,0-0.3,0.1c-0.1,0-0.1,0.1-0.1,0.2s0,0.2,0,0.4v0.9h1.1v-0.5h0.3
		v1.2h-0.2c0-0.1,0-0.2-0.1-0.3c0-0.1-0.1-0.1-0.2-0.1c-0.1,0-0.2,0-0.3,0h-0.2h-0.4v1.3c0,0.2,0,0.3,0,0.4h1.1
		c0.3,0,0.5-0.1,0.6-0.2c0.1-0.1,0.2-0.4,0.2-0.7h0.2v1.1h-3C61.6,126.2,61.6,126.1,61.6,126.1z"/>
	<path class="st0" d="M67,123L67,123v2.5c0,0.3,0,0.4,0,0.6h0.4v0.3h-1.1v-0.2c0.2,0,0.3,0,0.3-0.1s0.1-0.2,0.1-0.3v-3.1h-0.4v-0.3
		H67l2.4,3.3l0,0v-2.6c0-0.2,0-0.3,0-0.4H69v-0.3h1.1v0.2c-0.1,0-0.2,0-0.3,0.1s-0.1,0.1-0.1,0.2s0,0.2,0,0.3v0.2v3.2h-0.3L67,123z"
		/>
	<path class="st0" d="M72.7,126.1c0.2,0,0.3-0.1,0.3-0.1c0-0.1,0.1-0.2,0.1-0.4v-0.2v-2.9h-0.6c-0.2,0-0.4,0.1-0.5,0.2
		s-0.2,0.4-0.2,0.8h-0.2v-1.2H75v1.2h-0.2c0-0.2,0-0.4-0.1-0.6s-0.1-0.3-0.2-0.3c-0.1-0.1-0.3-0.1-0.5-0.1h-0.5v3.1
		c0,0.2,0,0.4,0,0.5H74v0.3h-1.3C72.7,126.4,72.7,126.1,72.7,126.1z"/>
	<path class="st0" d="M76.7,126.1c0.1,0,0.2,0,0.3-0.1c0.1-0.1,0.1-0.1,0.1-0.2s0-0.2,0-0.4v-2.5c0-0.2,0-0.3,0-0.4h-0.4v-0.3
		c0.4,0,0.7,0,0.9,0c0.2,0,0.3,0,0.4,0c0.5,0,0.9,0.1,1.2,0.3c0.3,0.2,0.4,0.4,0.4,0.8c0,0.3-0.1,0.5-0.2,0.7
		c-0.2,0.2-0.4,0.4-0.8,0.4c0.1,0,0.1,0.1,0.2,0.2s0.1,0.2,0.2,0.3l0.4,0.6c0.1,0.1,0.2,0.2,0.2,0.3c0.1,0.1,0.1,0.1,0.2,0.2
		s0.2,0.1,0.3,0.1v0.2h-0.7c-0.1-0.1-0.2-0.2-0.3-0.3c-0.1-0.1-0.2-0.2-0.2-0.4l-0.4-0.6l-0.1-0.1c-0.1-0.1-0.1-0.2-0.2-0.3
		c0-0.1-0.1-0.1-0.1-0.2c0,0-0.1,0-0.2,0s-0.2,0-0.2,0v1.1c0,0.2,0,0.4,0,0.5h0.4v0.3h-1.3v-0.2H76.7z M79,123.3
		c0-0.3-0.1-0.5-0.3-0.7c-0.2-0.1-0.4-0.2-0.8-0.2c-0.1,0-0.2,0-0.3,0.1s-0.1,0.1-0.1,0.2s0,0.2,0,0.4v1.1c0.1,0,0.2,0,0.3,0
		C78.6,124.3,79,124,79,123.3z"/>
	<path class="st0" d="M82.3,126.1c-0.3-0.2-0.5-0.5-0.7-0.8c-0.1-0.3-0.2-0.7-0.2-1s0.1-0.7,0.2-1c0.2-0.3,0.4-0.6,0.7-0.8
		c0.3-0.2,0.7-0.3,1.1-0.3s0.8,0.1,1.1,0.3c0.3,0.2,0.5,0.5,0.7,0.8s0.2,0.7,0.2,1s-0.1,0.7-0.2,1c-0.2,0.3-0.4,0.6-0.7,0.8
		c-0.3,0.2-0.7,0.3-1.1,0.3S82.6,126.3,82.3,126.1z M84.2,125.9c0.2-0.2,0.4-0.4,0.5-0.7c0.1-0.3,0.2-0.5,0.2-0.8s-0.1-0.6-0.2-0.9
		s-0.3-0.6-0.5-0.7c-0.2-0.2-0.5-0.3-0.8-0.3s-0.6,0.1-0.8,0.3c-0.2,0.2-0.4,0.4-0.5,0.7c-0.1,0.3-0.2,0.6-0.2,0.8
		c0,0.3,0.1,0.6,0.2,0.9s0.3,0.6,0.5,0.8c0.2,0.2,0.5,0.3,0.8,0.3C83.7,126.1,84,126.1,84.2,125.9z"/>
	<path class="st0" d="M89.8,126.1c0.1,0,0.2,0,0.3-0.1c0.1-0.1,0.1-0.1,0.1-0.2s0-0.2,0-0.4v-2.5c0-0.2,0-0.3,0-0.4h-0.4v-0.3h1.4
		c0.7,0,1.3,0.2,1.7,0.5c0.4,0.3,0.6,0.8,0.6,1.5c0,0.4-0.1,0.7-0.3,1c-0.2,0.3-0.4,0.5-0.7,0.7c-0.3,0.2-0.7,0.3-1.2,0.3
		L89.8,126.1L89.8,126.1z M92.2,125.8c0.2-0.2,0.4-0.4,0.6-0.6c0.1-0.3,0.2-0.6,0.2-0.9c0-0.6-0.2-1-0.5-1.3s-0.8-0.5-1.4-0.5
		c-0.1,0-0.2,0-0.3,0.1s-0.1,0.1-0.1,0.2s0,0.2,0,0.4v2.4c0,0.2,0,0.3,0,0.4c0.1,0,0.3,0,0.6,0C91.6,126.1,91.9,126,92.2,125.8z"/>
	<path class="st0" d="M95.2,126.1c0.1,0,0.2,0,0.3-0.1c0.1-0.1,0.1-0.1,0.1-0.2s0-0.2,0-0.4v-2.5c0-0.2,0-0.3,0-0.4h-0.4v-0.3H98v1
		h-0.2c0-0.3-0.1-0.5-0.2-0.6s-0.3-0.2-0.6-0.2h-0.5c-0.1,0-0.2,0-0.3,0.1c-0.1,0-0.1,0.1-0.1,0.2s0,0.2,0,0.4v0.9h1.1v-0.5h0.3v1.2
		h-0.2c0-0.1,0-0.2-0.1-0.3c0-0.1-0.1-0.1-0.2-0.1s-0.2,0-0.3,0h-0.2h-0.4v1.3c0,0.2,0,0.3,0,0.4h1.1c0.3,0,0.5-0.1,0.6-0.2
		s0.2-0.4,0.2-0.7h0.2v1.1h-3C95.2,126.2,95.2,126.1,95.2,126.1z"/>
	<path class="st0" d="M102.6,126.1c0.1,0,0.2,0,0.3-0.1c0.1-0.1,0.1-0.1,0.1-0.2s0-0.2,0-0.4v-2.5c0-0.2,0-0.3,0-0.4h-0.4v-0.3h1.4
		c0.7,0,1.3,0.2,1.7,0.5c0.4,0.3,0.6,0.8,0.6,1.5c0,0.4-0.1,0.7-0.3,1c-0.2,0.3-0.4,0.5-0.7,0.7c-0.3,0.2-0.7,0.3-1.2,0.3
		L102.6,126.1L102.6,126.1z M105,125.8c0.2-0.2,0.4-0.4,0.6-0.6c0.1-0.3,0.2-0.6,0.2-0.9c0-0.6-0.2-1-0.5-1.3s-0.8-0.5-1.4-0.5
		c-0.1,0-0.2,0-0.3,0.1s-0.1,0.1-0.1,0.2s0,0.2,0,0.4v2.4c0,0.2,0,0.3,0,0.4c0.1,0,0.3,0,0.6,0C104.4,126.1,104.7,126,105,125.8z"/>
	<path class="st0" d="M108.9,126.1c-0.3-0.2-0.5-0.5-0.7-0.8c-0.1-0.3-0.2-0.7-0.2-1s0.1-0.7,0.2-1c0.2-0.3,0.4-0.6,0.7-0.8
		c0.3-0.2,0.7-0.3,1.1-0.3s0.8,0.1,1.1,0.3c0.3,0.2,0.5,0.5,0.7,0.8s0.2,0.7,0.2,1s-0.1,0.7-0.2,1c-0.2,0.3-0.4,0.6-0.7,0.8
		c-0.3,0.2-0.7,0.3-1.1,0.3S109.2,126.3,108.9,126.1z M110.8,125.9c0.2-0.2,0.4-0.4,0.5-0.7c0.1-0.3,0.2-0.5,0.2-0.8
		s-0.1-0.6-0.2-0.9s-0.3-0.6-0.5-0.7c-0.2-0.2-0.5-0.3-0.8-0.3s-0.6,0.1-0.8,0.3c-0.2,0.2-0.4,0.4-0.5,0.7c-0.1,0.3-0.2,0.6-0.2,0.8
		c0,0.3,0.1,0.6,0.2,0.9s0.3,0.6,0.5,0.8c0.2,0.2,0.5,0.3,0.8,0.3C110.3,126.1,110.6,126.1,110.8,125.9z"/>
	<path class="st0" d="M114.6,126.3c-0.2,0-0.3-0.1-0.5-0.2v0.2h-0.3v-1.2h0.2c0,0.3,0.1,0.6,0.3,0.8c0.2,0.2,0.5,0.3,0.8,0.3
		c0.2,0,0.4-0.1,0.6-0.2s0.2-0.3,0.2-0.5s0-0.3-0.1-0.4s-0.2-0.2-0.3-0.3c-0.1-0.1-0.3-0.2-0.5-0.3c-0.3-0.1-0.5-0.2-0.6-0.3
		c-0.2-0.1-0.3-0.2-0.4-0.4c-0.1-0.2-0.2-0.3-0.2-0.6c0-0.2,0-0.3,0.1-0.5s0.2-0.3,0.4-0.4c0.2-0.1,0.4-0.2,0.7-0.2
		c0.2,0,0.3,0,0.5,0.1c0.2,0,0.3,0.1,0.5,0.2v-0.2h0.3v1.3H116c0-0.3-0.1-0.6-0.3-0.8c-0.2-0.2-0.4-0.3-0.7-0.3
		c-0.2,0-0.4,0.1-0.5,0.2s-0.2,0.3-0.2,0.5s0,0.3,0.1,0.4s0.2,0.2,0.3,0.3c0.1,0.1,0.3,0.2,0.5,0.3c0.3,0.1,0.5,0.2,0.6,0.3
		s0.3,0.2,0.4,0.4s0.2,0.3,0.2,0.6c0,0.2-0.1,0.4-0.2,0.6s-0.3,0.3-0.5,0.4s-0.4,0.1-0.7,0.1C114.9,126.4,114.7,126.3,114.6,126.3z"
		/>
	<path class="st0" d="M121.6,126.3c-0.2,0-0.3-0.1-0.5-0.2v0.2h-0.3v-1.2h0.2c0,0.3,0.1,0.6,0.3,0.8c0.2,0.2,0.5,0.3,0.8,0.3
		c0.2,0,0.4-0.1,0.6-0.2s0.2-0.3,0.2-0.5s0-0.3-0.1-0.4s-0.2-0.2-0.3-0.3c-0.1-0.1-0.3-0.2-0.5-0.3c-0.3-0.1-0.5-0.2-0.6-0.3
		c-0.2-0.1-0.3-0.2-0.4-0.4c-0.1-0.2-0.2-0.3-0.2-0.6c0-0.2,0-0.3,0.1-0.5s0.2-0.3,0.4-0.4c0.2-0.1,0.4-0.2,0.7-0.2
		c0.2,0,0.3,0,0.5,0.1c0.2,0,0.3,0.1,0.5,0.2v-0.2h0.3v1.3h-0.2c0-0.3-0.1-0.6-0.3-0.8c-0.2-0.2-0.4-0.3-0.7-0.3
		c-0.2,0-0.4,0.1-0.5,0.2s-0.2,0.3-0.2,0.5s0,0.3,0.1,0.4s0.2,0.2,0.3,0.3c0.1,0.1,0.3,0.2,0.5,0.3c0.3,0.1,0.5,0.2,0.6,0.3
		s0.3,0.2,0.4,0.4s0.2,0.3,0.2,0.6c0,0.2-0.1,0.4-0.2,0.6s-0.3,0.3-0.5,0.4s-0.4,0.1-0.7,0.1C122,126.4,121.8,126.3,121.6,126.3z"/>
	<path class="st0" d="M125.2,126.1c0.1,0,0.2,0,0.3-0.1c0.1-0.1,0.1-0.1,0.1-0.2s0-0.2,0-0.4v-2.5c0-0.2,0-0.3,0-0.4h-0.4v-0.3h1.3
		v0.2c-0.1,0-0.2,0-0.3,0.1c-0.1,0.1-0.1,0.1-0.1,0.2s0,0.2,0,0.4v2.4c0,0.2,0,0.4,0,0.5h0.4v0.3h-1.3V126.1z"/>
	<path class="st0" d="M129.2,126.1c-0.3-0.2-0.5-0.4-0.7-0.7c-0.2-0.3-0.2-0.7-0.2-1.1s0.1-0.7,0.2-1.1s0.4-0.6,0.7-0.8
		c0.3-0.2,0.7-0.3,1.1-0.3c0.2,0,0.4,0,0.6,0.1c0.2,0.1,0.4,0.1,0.6,0.2v-0.3h0.3v1.3h-0.2c0-0.4-0.2-0.6-0.4-0.8
		c-0.2-0.2-0.5-0.3-0.9-0.3c-0.3,0-0.5,0.1-0.7,0.2c-0.2,0.2-0.4,0.4-0.5,0.7c-0.1,0.3-0.2,0.6-0.2,0.9c0,0.4,0.1,0.7,0.2,1
		c0.1,0.3,0.3,0.5,0.5,0.7s0.5,0.2,0.8,0.2c0.2,0,0.3,0,0.5-0.1s0.3-0.1,0.5-0.2v-1.3H131v-0.3h1.3v0.2c-0.2,0-0.3,0.1-0.3,0.2
		s-0.1,0.3-0.1,0.5v0.9h-0.2c-0.2,0-0.4,0-0.6,0.1c-0.1,0-0.3,0.1-0.4,0.1c-0.2,0-0.3,0-0.4,0C129.8,126.4,129.5,126.3,129.2,126.1z
		"/>
	<path class="st0" d="M133.8,126.1c0.1,0,0.2,0,0.3-0.1s0.1-0.1,0.1-0.2s0-0.2,0-0.4v-2.5c0-0.2,0-0.3,0-0.4h-0.4v-0.3h1.3v0.2
		c-0.1,0-0.2,0-0.3,0.1s-0.1,0.1-0.1,0.2s0,0.2,0,0.4v2.5c0,0.2,0,0.3,0,0.4h1.1c0.2,0,0.4-0.1,0.6-0.2c0.1-0.2,0.2-0.4,0.2-0.7h0.2
		v1.2H134v-0.2H133.8z"/>
	<path class="st0" d="M139.1,126.1c-0.3-0.2-0.5-0.5-0.7-0.8c-0.1-0.3-0.2-0.7-0.2-1s0.1-0.7,0.2-1c0.2-0.3,0.4-0.6,0.7-0.8
		c0.3-0.2,0.7-0.3,1.1-0.3c0.4,0,0.8,0.1,1.1,0.3c0.3,0.2,0.5,0.5,0.7,0.8s0.2,0.7,0.2,1s-0.1,0.7-0.2,1c-0.2,0.3-0.4,0.6-0.7,0.8
		c-0.3,0.2-0.7,0.3-1.1,0.3S139.4,126.3,139.1,126.1z M141.1,125.9c0.2-0.2,0.4-0.4,0.5-0.7c0.1-0.3,0.2-0.5,0.2-0.8
		s-0.1-0.6-0.2-0.9c-0.1-0.3-0.3-0.6-0.5-0.7c-0.2-0.2-0.5-0.3-0.8-0.3s-0.6,0.1-0.8,0.3c-0.2,0.2-0.4,0.4-0.5,0.7
		c-0.1,0.3-0.2,0.6-0.2,0.8c0,0.3,0.1,0.6,0.2,0.9c0.1,0.3,0.3,0.6,0.5,0.8c0.2,0.2,0.5,0.3,0.8,0.3
		C140.6,126.1,140.8,126.1,141.1,125.9z"/>
	<path class="st0" d="M144.8,126.3c-0.2,0-0.3-0.1-0.5-0.2v0.2H144v-1.2h0.2c0,0.3,0.1,0.6,0.3,0.8c0.2,0.2,0.5,0.3,0.8,0.3
		c0.2,0,0.4-0.1,0.6-0.2c0.2-0.1,0.2-0.3,0.2-0.5s0-0.3-0.1-0.4s-0.2-0.2-0.3-0.3c-0.1-0.1-0.3-0.2-0.5-0.3
		c-0.3-0.1-0.5-0.2-0.6-0.3c-0.2-0.1-0.3-0.2-0.4-0.4c-0.1-0.2-0.2-0.3-0.2-0.6c0-0.2,0-0.3,0.1-0.5s0.2-0.3,0.4-0.4
		s0.4-0.2,0.7-0.2c0.2,0,0.3,0,0.5,0.1c0.2,0,0.3,0.1,0.5,0.2v-0.2h0.3v1.3h-0.2c0-0.3-0.1-0.6-0.3-0.8c-0.2-0.2-0.4-0.3-0.7-0.3
		c-0.2,0-0.4,0.1-0.5,0.2s-0.2,0.3-0.2,0.5s0,0.3,0.1,0.4s0.2,0.2,0.3,0.3c0.1,0.1,0.3,0.2,0.5,0.3c0.3,0.1,0.5,0.2,0.6,0.3
		s0.3,0.2,0.4,0.4s0.2,0.3,0.2,0.6c0,0.2-0.1,0.4-0.2,0.6c-0.1,0.2-0.3,0.3-0.5,0.4s-0.4,0.1-0.7,0.1
		C145.2,126.4,145,126.3,144.8,126.3z"/>
</g>
<g>
	<path class="st0" d="M103,82.6H73.7V53.2H103V82.6z M74.4,81.8h27.9V53.9H74.4V81.8z"/>
	<g>
		<path class="st0" d="M100.7,73.8c-0.1-0.2-0.4-0.3-0.6-0.3l0,0H76.6l0,0c-0.3,0-0.5,0.1-0.6,0.3c-0.1,0.2-0.2,0.4-0.2,0.7
			c0.1,0.4,0.4,0.7,0.7,0.7h0.1l-0.1-0.4c-0.2,0-0.3-0.1-0.4-0.3c0-0.1,0-0.3,0.1-0.3c0.1-0.1,0.2-0.1,0.3-0.1H100
			c0.1,0,0.3,0.1,0.3,0.1c0.1,0.1,0.1,0.2,0.1,0.3c0,0.2-0.2,0.3-0.4,0.3l-0.1,0.4h0.1c0.4,0,0.7-0.3,0.7-0.7
			C100.9,74.2,100.8,74,100.7,73.8z"/>
		<path class="st0" d="M100.1,75.1L100.1,75.1L100.1,75.1v-0.5l0,0l0,0c0.1,0,0.3-0.1,0.3-0.3c0-0.1,0-0.2-0.1-0.3
			c-0.1-0.1-0.2-0.1-0.3-0.1H76.6c-0.1,0-0.2,0.1-0.3,0.1c-0.1,0.1-0.1,0.2-0.1,0.3c0,0.1,0.1,0.2,0.1,0.2c0.1,0,0.1,0.1,0.2,0.1
			l0,0l0,0l0.1,0.4l0,0h-0.1c-0.4,0-0.7-0.3-0.7-0.7c0-0.3,0-0.5,0.2-0.7c0.1-0.2,0.4-0.3,0.6-0.3l0,0l0,0h23.5l0,0
			c0.2,0,0.5,0.1,0.6,0.3l0,0c0.1,0.2,0.2,0.4,0.2,0.7C100.8,74.9,100.5,75.1,100.1,75.1z M100.1,75.1L100.1,75.1
			c0.4,0,0.7-0.3,0.8-0.6c0-0.3,0-0.5-0.2-0.7l0,0c-0.1-0.2-0.3-0.3-0.6-0.3l0,0l0,0H76.6c-0.3,0-0.5,0.1-0.6,0.3
			c-0.1,0.2-0.2,0.4-0.2,0.7c0.1,0.4,0.4,0.6,0.7,0.6c0,0,0,0,0.1,0v-0.4c-0.1,0-0.1,0-0.2-0.1s-0.1-0.2-0.2-0.3
			c0-0.1,0-0.3,0.1-0.4s0.2-0.1,0.3-0.2h23.5c0.1,0,0.3,0.1,0.3,0.2c0.1,0.1,0.1,0.2,0.1,0.4c0,0.2-0.2,0.3-0.3,0.3l0,0L100.1,75.1z
			"/>
	</g>
	<g>
		<g>
			<path class="st0" d="M96.1,75.5C96,75.5,96,75.6,96.1,75.5c-0.1,0.2,0,0.3,0.1,0.3c0.4,0,0.4-0.3,0.4-0.4c0-0.2,0-0.3-0.1-0.4
				s-0.3-0.2-0.4-0.2l0,0c-0.3,0-0.6,0.2-0.8,0.4L91.9,78c-0.5,0.4-1,0.6-1.4,0.7c-0.1,0-0.1,0-0.2,0c-0.6,0-1.1-0.2-1.5-0.5
				c-0.4-0.4-0.6-0.9-0.7-1.5c-0.1-1.2,0.7-2.1,1.8-2.2c1-0.1,1.7,0.7,1.8,1.4c0,0.2,0,0.4,0,0.6c-0.2,0.8-0.9,1.2-1.6,1.1
				c-0.3-0.1-0.6-0.4-0.7-0.7c-0.1-0.3,0-0.7,0.2-0.9l0.3,0.3c-0.2,0.2-0.1,0.4-0.1,0.5c0.1,0.2,0.2,0.4,0.4,0.4
				c0.5,0.1,1-0.2,1.1-0.7c0-0.2,0-0.3,0-0.5c-0.1-0.5-0.6-1-1.3-1c-0.9,0.1-1.4,0.8-1.4,1.7c0,0.5,0.2,0.9,0.5,1.2
				c0.3,0.3,0.8,0.5,1.4,0.4c0.3,0,0.8-0.3,1.2-0.6l3.4-2.8c0.3-0.2,0.7-0.4,1-0.4s0.6,0.1,0.7,0.3C97,75,97,75.2,97,75.5
				c0,0.4-0.3,0.8-0.8,0.8l0,0c-0.3,0-0.6-0.3-0.6-0.6"/>
			<path class="st0" d="M90.3,78.7c-0.6,0-1.1-0.2-1.5-0.5c-0.4-0.4-0.6-0.9-0.7-1.5c-0.1-1.2,0.7-2.1,1.8-2.2
				c0.4,0,0.9,0.1,1.2,0.4c0.3,0.3,0.5,0.6,0.6,1c0,0.2,0,0.4,0,0.6c-0.1,0.4-0.3,0.7-0.6,0.9c-0.3,0.2-0.6,0.2-1,0.2
				c-0.3-0.1-0.6-0.4-0.7-0.7c-0.1-0.4,0-0.7,0.2-0.9l0,0l0,0l0.3,0.3l0,0c-0.2,0.2-0.1,0.4-0.1,0.5c0.1,0.2,0.2,0.4,0.4,0.4
				c0.2,0.1,0.5,0,0.7-0.1s0.3-0.4,0.4-0.6c0-0.2,0-0.3,0-0.5c-0.1-0.5-0.5-1-1.2-1c0,0,0,0-0.1,0c-0.9,0.1-1.4,0.8-1.4,1.7
				c0,0.5,0.2,0.9,0.5,1.2c0.3,0.3,0.7,0.4,1.2,0.4h0.1c0.3,0,0.8-0.2,1.2-0.6l3.4-2.8c0.3-0.2,0.7-0.4,1.1-0.4
				c0.3,0,0.6,0.1,0.8,0.3c0.2,0.2,0.2,0.4,0.2,0.7c0,0.4-0.3,0.8-0.9,0.8l0,0c-0.3,0-0.6-0.3-0.6-0.6l0,0c0,0.3,0.3,0.6,0.5,0.6
				l0,0c0.5,0,0.8-0.4,0.8-0.8c0-0.3-0.1-0.5-0.2-0.7c-0.2-0.2-0.4-0.3-0.7-0.3c-0.4,0-0.8,0.2-1,0.4l-3.4,2.8
				c-0.4,0.3-0.9,0.6-1.2,0.6h-0.1c-0.5,0-0.9-0.2-1.2-0.4c-0.3-0.3-0.5-0.7-0.5-1.2C88.5,75.8,89.1,75,90,75h0.1
				c0.7,0,1.2,0.5,1.3,1c0,0.2,0,0.3,0,0.5c-0.1,0.3-0.2,0.5-0.4,0.6c-0.2,0.1-0.5,0.2-0.7,0.1c-0.2,0-0.3-0.2-0.4-0.4
				c0-0.1-0.1-0.3,0.1-0.5L89.7,76c-0.2,0.2-0.3,0.6-0.2,0.9c0.1,0.4,0.4,0.6,0.7,0.7c0.3,0.1,0.6,0,0.9-0.1
				c0.3-0.2,0.5-0.5,0.6-0.9c0-0.2,0.1-0.4,0-0.6c-0.1-0.7-0.7-1.4-1.6-1.4H90c-1.1,0.1-1.8,1-1.7,2.2c0,0.6,0.3,1.1,0.7,1.5
				C89.2,78.5,89.7,78.7,90.3,78.7c0.1,0,0.1,0,0.2,0c0.4,0,0.9-0.3,1.4-0.7l3.4-2.8c0.2-0.2,0.6-0.4,0.8-0.4c0.2,0,0.4,0.1,0.5,0.2
				s0.1,0.2,0.1,0.4c0,0.1-0.1,0.4-0.5,0.4c-0.1,0-0.2-0.1-0.2-0.2c0,0,0-0.1,0.1-0.1l0,0c-0.1,0-0.1,0.1-0.1,0.1
				c0,0.1,0.1,0.2,0.1,0.2c0.3,0,0.4-0.2,0.4-0.4c0-0.2,0-0.3-0.1-0.4s-0.3-0.2-0.4-0.2c-0.3,0-0.6,0.2-0.8,0.4L91.9,78
				c-0.5,0.4-1,0.6-1.4,0.7C90.4,78.7,90.3,78.7,90.3,78.7z"/>
		</g>
	</g>
	<g>
		<polygon class="st0" points="88.3,78.5 88.8,79 88.3,80.5 87.8,79 		"/>
		<path class="st0" d="M88.3,80.6L87.8,79l0.5-0.5l0,0l0.5,0.5l0,0L88.3,80.6z M87.8,79l0.5,1.4l0.5-1.4l-0.5-0.5L87.8,79z"/>
	</g>
	<g>
		<g>
			<path class="st0" d="M81,75.7c0,0.3-0.3,0.6-0.6,0.6l0,0c-0.5,0-0.8-0.4-0.8-0.8c0-0.3,0.1-0.5,0.2-0.7c0.2-0.2,0.4-0.3,0.7-0.3
				c0.4,0,0.8,0.2,1,0.4l3.4,2.8c0.4,0.3,0.9,0.5,1.2,0.6c0.5,0,1-0.1,1.4-0.4c0.3-0.3,0.5-0.7,0.5-1.2c0.1-0.9-0.5-1.7-1.4-1.7
				c-0.7,0-1.3,0.5-1.3,1c0,0.2,0,0.3,0,0.5c0.1,0.5,0.6,0.9,1.1,0.7c0.2,0,0.3-0.2,0.4-0.4c0-0.1,0.1-0.3-0.1-0.5L87,76
				c0.2,0.2,0.3,0.6,0.2,0.9c-0.1,0.4-0.4,0.6-0.7,0.7c-0.7,0.2-1.4-0.3-1.6-1.1c0-0.2-0.1-0.4,0-0.6c0.1-0.7,0.8-1.5,1.8-1.4
				c1.1,0.1,1.8,1,1.8,2.2c0,0.6-0.3,1.1-0.7,1.5c-0.4,0.4-0.9,0.5-1.5,0.5c-0.1,0-0.1,0-0.2,0c-0.4,0-0.9-0.3-1.4-0.7l-3.4-2.8
				c-0.2-0.2-0.6-0.4-0.8-0.4l0,0c-0.2,0-0.3,0.1-0.4,0.2C80,75.2,80,75.3,80,75.5c0,0.1,0.1,0.4,0.4,0.4c0.1,0,0.2-0.1,0.2-0.2
				c0,0,0-0.1-0.1-0.1"/>
			<path class="st0" d="M86.4,78.7c-0.1,0-0.1,0-0.2,0c-0.4,0-1-0.3-1.4-0.7l-3.4-2.8c-0.2-0.2-0.5-0.4-0.8-0.4l0,0
				c-0.2,0-0.3,0.1-0.4,0.2C80,75.2,80,75.3,80,75.5s0.1,0.4,0.4,0.4l0,0c0.1,0,0.1-0.1,0.1-0.2l0,0c0,0,0-0.1-0.1-0.1l0,0
				c0.1,0,0.1,0.1,0.1,0.1c0,0.1-0.1,0.2-0.2,0.2l0,0c-0.3,0-0.4-0.1-0.4-0.4c0-0.2,0-0.3,0.1-0.4s0.3-0.2,0.4-0.2l0,0
				c0.3,0,0.6,0.2,0.8,0.4l3.4,2.8c0.5,0.4,1,0.6,1.4,0.7C86.3,78.7,86.3,78.7,86.4,78.7c0.6,0,1.1-0.2,1.4-0.6
				c0.4-0.4,0.6-0.9,0.7-1.5c0.1-1.2-0.7-2.1-1.7-2.2c-0.1,0-0.1,0-0.2,0c-0.9,0-1.5,0.7-1.6,1.4c0,0.2,0,0.4,0,0.6
				c0.1,0.4,0.3,0.7,0.6,0.9c0.3,0.2,0.6,0.2,0.9,0.2c0.3-0.1,0.6-0.4,0.7-0.7c0.1-0.3,0-0.7-0.2-0.9l-0.3,0.3
				c0.2,0.2,0.1,0.4,0.1,0.5c-0.1,0.2-0.2,0.4-0.4,0.4c-0.2,0.1-0.5,0-0.7-0.1s-0.4-0.4-0.4-0.7c0-0.2,0-0.3,0-0.5
				c0.1-0.5,0.6-1,1.3-1h0.1c0.9,0.1,1.5,0.8,1.4,1.7c0,0.5-0.2,0.9-0.5,1.2c-0.3,0.3-0.7,0.4-1.2,0.4c-0.1,0-0.1,0-0.2,0
				c-0.3,0-0.8-0.3-1.2-0.6l-3.4-2.8c-0.3-0.2-0.7-0.4-1-0.4s-0.6,0.1-0.7,0.3c-0.2,0.2-0.2,0.4-0.2,0.7c0,0.4,0.3,0.8,0.8,0.8l0,0
				c0.3,0,0.5-0.3,0.5-0.6l0,0c0,0.3-0.3,0.6-0.6,0.6l0,0c-0.6,0-0.8-0.4-0.9-0.8c0-0.3,0.1-0.5,0.2-0.7c0.2-0.2,0.4-0.3,0.8-0.3
				s0.8,0.2,1.1,0.4l3.4,2.8c0.4,0.3,0.9,0.5,1.2,0.6c0.1,0,0.1,0,0.2,0c0.5,0,0.9-0.2,1.2-0.4c0.3-0.3,0.5-0.7,0.5-1.2
				c0.1-0.9-0.5-1.6-1.4-1.7h-0.1c-0.7,0-1.2,0.5-1.2,1c0,0.2,0,0.3,0,0.5c0.1,0.3,0.2,0.5,0.4,0.6c0.2,0.1,0.4,0.2,0.6,0.1
				c0.2,0,0.3-0.2,0.4-0.4c0-0.1,0.1-0.3-0.1-0.5l0,0l0.3-0.3l0,0c0.2,0.2,0.3,0.6,0.2,0.9c-0.1,0.4-0.4,0.7-0.7,0.7
				c-0.3,0.1-0.7,0-1-0.2s-0.5-0.5-0.6-0.9c0-0.2-0.1-0.4,0-0.6c0.1-0.7,0.7-1.4,1.6-1.4c0.1,0,0.1,0,0.2,0c1.1,0.1,1.9,1,1.8,2.2
				c0,0.6-0.3,1.1-0.7,1.5C87.5,78.5,86.9,78.7,86.4,78.7z"/>
		</g>
	</g>
	<g>
		<path class="st0" d="M96,75.3c0.2,0,0.3,0.2,0.3,0.4c0,0.2-0.1,0.4-0.3,0.4c-0.2,0-0.3-0.2-0.3-0.4C95.6,75.5,95.8,75.3,96,75.3
			L96,75.3z"/>
		<path class="st0" d="M96,76c-0.2,0-0.4-0.2-0.4-0.4s0.2-0.4,0.4-0.4s0.4,0.2,0.4,0.4S96.2,76,96,76z M96,75.3
			c-0.2,0-0.3,0.2-0.3,0.3S95.8,76,96,76s0.3-0.2,0.3-0.3S96.1,75.3,96,75.3z"/>
	</g>
	<g>
		<path class="st0" d="M80.7,75.3c-0.2,0-0.3,0.2-0.3,0.4c0,0.2,0.1,0.4,0.3,0.4c0.2,0,0.3-0.2,0.3-0.4S80.8,75.3,80.7,75.3
			L80.7,75.3z"/>
		<path class="st0" d="M80.7,76c-0.2,0-0.4-0.2-0.4-0.4s0.2-0.4,0.4-0.4s0.4,0.2,0.4,0.4S80.9,76,80.7,76z M80.7,75.3
			c-0.2,0-0.3,0.2-0.3,0.3s0.1,0.3,0.3,0.3s0.3-0.2,0.3-0.3S80.8,75.3,80.7,75.3z"/>
	</g>
	<g>
		<path class="st0" d="M86.7,75.7c-0.2,0-0.4,0.2-0.4,0.4c0,0.2,0.2,0.4,0.4,0.4c0.2,0,0.4-0.2,0.4-0.4
			C87.1,75.9,86.9,75.7,86.7,75.7L86.7,75.7z"/>
		<path class="st0" d="M86.7,76.6c-0.2,0-0.4-0.2-0.4-0.4c0-0.2,0.2-0.4,0.4-0.4s0.4,0.2,0.4,0.4S87,76.6,86.7,76.6z M86.7,75.8
			c-0.2,0-0.4,0.2-0.4,0.4c0,0.2,0.2,0.4,0.4,0.4s0.4-0.2,0.4-0.4C87.1,75.9,86.9,75.8,86.7,75.8z"/>
	</g>
	<g>
		<path class="st0" d="M89.9,75.7c-0.2,0-0.4,0.2-0.4,0.4c0,0.2,0.2,0.4,0.4,0.4c0.2,0,0.4-0.2,0.4-0.4
			C90.3,75.9,90.1,75.7,89.9,75.7L89.9,75.7z"/>
		<path class="st0" d="M89.9,76.6c-0.2,0-0.4-0.2-0.4-0.4c0-0.2,0.2-0.4,0.4-0.4c0.2,0,0.4,0.2,0.4,0.4S90.1,76.6,89.9,76.6z
			 M89.9,75.8c-0.2,0-0.4,0.2-0.4,0.4c0,0.2,0.2,0.4,0.4,0.4c0.2,0,0.4-0.2,0.4-0.4C90.3,75.9,90.1,75.8,89.9,75.8z"/>
	</g>
	<path class="st0" d="M78.8,71.6h-2.1V56.5h2.1V71.6z M77.2,71.2h1.1V56.9h-1.1V71.2z"/>
	<path class="st0" d="M81.8,71.6h-2.1V56.5h2.1V71.6z M80.2,71.2h1.1V56.9h-1.1V71.2z"/>
	<path class="st0" d="M84.8,71.6h-2.1V56.5h2.1V71.6z M83.2,71.2h1.1V56.9h-1.1V71.2z"/>
	<path class="st0" d="M87.8,71.6h-2.1V56.5h2.1V71.6z M86.2,71.2h1.1V56.9h-1.1V71.2z"/>
	<path class="st0" d="M90.9,71.6h-2.1V56.5h2.1V71.6z M89.3,71.2h1.1V56.9h-1.1V71.2z"/>
	<path class="st0" d="M93.9,71.6h-2.1V56.5h2.1V71.6z M92.3,71.2h1.1V56.9h-1.1V71.2z"/>
	<path class="st0" d="M96.9,71.6h-2.1V56.5h2.1V71.6z M95.3,71.2h1.1V56.9h-1.1V71.2z"/>
	<path class="st0" d="M99.9,71.6h-2.1V56.5h2.1V71.6z M98.3,71.2h1.1V56.9h-1.1V71.2z"/>
</g>
</svg>
