<?xml version="1.0" encoding="UTF-8"?>
<svg width="177px" height="177px" viewBox="0 0 177 177" version="1.1" xmlns="http://www.w3.org/2000/svg" xmlns:xlink="http://www.w3.org/1999/xlink">
    <!-- Generator: Sketch 51.1 (57501) - http://www.bohemiancoding.com/sketch -->
    <title>Logo(GA)</title>
    <desc>Created with Sketch.</desc>
    <defs></defs>
    <g id="Page-1" stroke="none" stroke-width="1" fill="none" fill-rule="evenodd">
        <g id="Logo(GA)" fill="#FFFFFF" fill-rule="nonzero">
            <path d="M176.64,176.64 L0,176.64 L0,0 L176.64,0 L176.64,176.64 Z M0.36,176.28 L176.28,176.28 L176.28,0.36 L0.36,0.36 L0.36,176.28 Z" id="Shape"></path>
            <path d="M26.51,127.19 C26.4040354,127.184553 26.3000854,127.220398 26.22,127.29 C26.1621386,127.341289 26.1263143,127.412938 26.12,127.49 C26.12,127.57 26.12,127.71 26.12,127.9 L26.12,129.23 C26.1337317,129.709931 26.0049817,130.183175 25.75,130.59 C25.472422,130.955878 25.0278786,131.155546 24.57,131.12 C24.222272,131.146787 23.8743795,131.070251 23.57,130.9 C23.3259419,130.748733 23.1448073,130.514324 23.06,130.24 C22.949082,129.860252 22.8984658,129.465447 22.91,129.07 L22.91,127.9 C22.91,127.66 22.91,127.43 22.91,127.23 L22.5,127.23 L22.5,127 L23.79,127 L23.79,127.19 C23.62,127.19 23.51,127.19 23.47,127.33 C23.4179277,127.42829 23.3937216,127.538946 23.4,127.65 L23.4,129.1 C23.3953383,129.389241 23.4255562,129.677991 23.49,129.96 C23.5414107,130.191539 23.6637586,130.401279 23.84,130.56 C24.0532371,130.726236 24.3202293,130.808113 24.59,130.79 C24.9344478,130.814438 25.2671308,130.659438 25.47,130.38 C25.6855037,130.047598 25.7904989,129.655617 25.77,129.26 L25.77,127.65 C25.77,127.49 25.77,127.35 25.77,127.23 L25.36,127.23 L25.36,127 L26.43,127 L26.51,127.19 Z" id="Shape"></path>
            <path d="M31.9,127.19 C31.8119569,127.190914 31.7257164,127.215062 31.65,127.26 C31.5940475,127.297127 31.5546294,127.354463 31.54,127.42 C31.5331496,127.513208 31.5331496,127.606792 31.54,127.7 L31.54,131.12 L31.26,131.12 L28.77,127.77 L28.77,130.23 C28.77,130.48 28.77,130.67 28.77,130.8 L29.18,130.8 L29.18,131 L28.18,131 L28.18,130.82 C28.3012773,130.834285 28.4205294,130.78043 28.49,130.68 C28.5420723,130.58171 28.5662784,130.471054 28.56,130.36 L28.56,127.21 L28.17,127.21 L28.17,127 L28.85,127 L31.3,130.28 L31.3,127.65 C31.3,127.49 31.3,127.35 31.3,127.23 L30.89,127.23 L30.89,127 L31.89,127 L31.9,127.19 Z" id="Shape"></path>
            <path d="M38.5,127.23 C38.7042373,127.373199 38.8352673,127.59888 38.858371,127.847245 C38.8814747,128.095609 38.7943199,128.341587 38.62,128.52 C38.4309961,128.709768 38.1852163,128.832657 37.92,128.87 C38.2569471,128.846013 38.5910989,128.945547 38.86,129.15 C39.0785458,129.33234 39.2003901,129.605567 39.19,129.89 C39.1935648,130.102365 39.1344325,130.311067 39.02,130.49 C38.8970744,130.663949 38.7270952,130.799238 38.53,130.88 C38.3086339,130.972846 38.0699413,131.017174 37.83,131.01 L36.16,131.01 L36.16,130.83 C36.2653952,130.83166 36.3680289,130.796269 36.45,130.73 C36.5074722,130.675265 36.54,130.599366 36.54,130.52 C36.54,130.44 36.54,130.3 36.54,130.09 L36.54,127.68 C36.54,127.47 36.54,127.32 36.54,127.22 L36.13,127.22 L36.13,127 L37.43,127 C37.8015836,126.968856 38.1740355,127.048916 38.5,127.23 Z M37.05,129.05 L37.05,130.35 C37.05,130.55 37.05,130.7 37.05,130.8 L37.66,130.8 C37.9197506,130.811663 38.1751144,130.730088 38.38,130.57 C38.7235185,130.189381 38.7235185,129.610619 38.38,129.23 C38.1736329,129.082251 37.9235344,129.008278 37.67,129.02 L37.05,129.05 Z M37.21,127.25 C37.1488933,127.288358 37.1056801,127.349576 37.09,127.42 C37.0705921,127.532502 37.0705921,127.647498 37.09,127.76 L37.09,128.83 L37.51,128.83 C37.7572755,128.856655 38.0024386,128.76379 38.17,128.58 C38.3123155,128.413153 38.387206,128.19918 38.38,127.98 C38.4061292,127.753067 38.3112172,127.529074 38.13,127.39 C37.9479702,127.274216 37.7356762,127.215052 37.52,127.22 C37.4157973,127.20346 37.3090975,127.213786 37.21,127.25 Z" id="Shape"></path>
            <path d="M43.63,130.16 C43.6726363,130.271314 43.7093543,130.384806 43.74,130.5 C43.7521414,130.599631 43.7521414,130.700369 43.74,130.8 L44.13,130.8 L44.13,131 L42.85,131 L42.85,130.82 C43.08,130.82 43.19,130.72 43.19,130.54 C43.2008879,130.450329 43.2008879,130.359671 43.19,130.27 L42.98,129.73 L41.49,129.73 C41.43,129.89 41.37,130.1 41.29,130.35 L41.15,130.75 L41.59,130.75 L41.59,131 L40.47,131 L40.47,130.82 C40.5521252,130.821469 40.6326176,130.796971 40.7,130.75 C40.7594716,130.705221 40.8074554,130.646955 40.84,130.58 C40.8913621,130.476774 40.9348201,130.3698 40.97,130.26 L41.03,130.1 L42.21,126.88 L42.35,126.88 L43.63,130.16 Z M42.18,127.73 L41.94,128.38 L41.63,129.26 L41.53,129.54 L42.85,129.54 L42.45,128.44 L42.19,127.73 L42.18,127.73 Z" id="Shape"></path>
            <path d="M46.8,127.19 C46.6946048,127.18834 46.5919711,127.223731 46.51,127.29 C46.4549759,127.342315 46.4226625,127.414122 46.42,127.49 C46.412034,127.626551 46.412034,127.763449 46.42,127.9 L46.42,130.36 C46.42,130.56 46.42,130.71 46.42,130.81 L47.49,130.81 C47.7000662,130.816624 47.9019923,130.72851 48.04,130.57 C48.1814334,130.357714 48.2482723,130.10443 48.23,129.85 L48.42,129.85 L48.42,131.03 L45.51,131.03 L45.51,130.85 C45.6127151,130.853881 45.712982,130.818071 45.79,130.75 C45.8478614,130.698711 45.8836857,130.627062 45.89,130.55 C45.89,130.47 45.89,130.33 45.89,130.14 L45.89,127.66 C45.89,127.5 45.89,127.36 45.89,127.24 L45.48,127.24 L45.48,127 L46.8,127 L46.8,127.19 Z" id="Shape"></path>
            <path d="M53,127.26 L53,126.95 L53.31,126.95 L53.31,128.29 L53.1,128.29 C53.0866674,127.973439 52.9545605,127.67352 52.73,127.45 C52.5067353,127.246087 52.2121438,127.13831 51.91,127.15 C51.6449949,127.144933 51.3854422,127.225604 51.17,127.38 C50.9325219,127.537327 50.7451202,127.759433 50.63,128.02 C50.4917847,128.334653 50.4268183,128.676582 50.44,129.02 C50.4350389,129.348702 50.5069505,129.674016 50.65,129.97 C50.7740909,130.23055 50.9635834,130.454495 51.2,130.62 C51.4327389,130.769498 51.7033839,130.849303 51.98,130.85 C52.2361735,130.848499 52.4888554,130.79045 52.72,130.68 C52.9524235,130.565275 53.1545499,130.397407 53.31,130.19 L53.45,130.31 C53.2635651,130.594471 52.9999421,130.819938 52.69,130.96 C52.418815,131.079876 52.1264472,131.144469 51.83,131.15 C51.4781601,131.153828 51.1321004,131.060392 50.83,130.88 C50.534681,130.703508 50.295435,130.446925 50.14,130.14 C49.9744854,129.832766 49.8885382,129.488978 49.89,129.14 C49.8856753,128.774901 49.9607406,128.413223 50.11,128.08 C50.2613758,127.757533 50.4961323,127.481349 50.79,127.28 C51.1138689,127.069354 51.4937525,126.961314 51.88,126.97 C52.2732459,126.958805 52.6616039,127.059362 53,127.26 Z" id="Shape"></path>
            <path d="M58.09,127.23 C58.389865,127.4259 58.6316177,127.698735 58.79,128.02 C58.9403444,128.331988 59.018933,128.673678 59.02,129.02 C59.0169565,129.366092 58.9384658,129.707355 58.79,130.02 C58.6405184,130.341 58.4051784,130.61441 58.11,130.81 C57.7892183,131.028341 57.4079019,131.140287 57.02,131.13 C56.6140796,131.145856 56.2129548,131.037726 55.87,130.82 C55.5730128,130.630835 55.3369054,130.360006 55.19,130.04 C55.0443687,129.726783 54.969268,129.385417 54.97,129.04 C54.971067,128.693678 55.0496556,128.351988 55.2,128.04 C55.3494816,127.719 55.5848216,127.44559 55.88,127.25 C56.2007817,127.031659 56.5820981,126.919713 56.97,126.93 C57.3653287,126.912189 57.7565041,127.016968 58.09,127.23 Z M56.18,127.4 C55.9659724,127.575125 55.8006617,127.802427 55.7,128.06 C55.5921977,128.33032 55.5378606,128.618985 55.54,128.91 C55.5396332,129.220362 55.5937895,129.528377 55.7,129.82 C55.8000016,130.113877 55.9759512,130.376076 56.21,130.58 C56.4349195,130.78117 56.7283623,130.888527 57.03,130.88 C57.3049645,130.889431 57.57433,130.800824 57.79,130.63 C58.009756,130.458109 58.1790427,130.23009 58.28,129.97 C58.3885457,129.699897 58.4429106,129.411083 58.44,129.12 C58.440352,128.798068 58.3792591,128.479027 58.26,128.18 C58.1523345,127.892859 57.9774556,127.635684 57.75,127.43 C57.2906194,127.064111 56.6393806,127.064111 56.18,127.43 L56.18,127.4 Z M57.75,125.9 C57.75,125.99 57.69,126.07 57.57,126.15 L56.74,126.66 L56.61,126.49 L57.33,125.8 C57.3946928,125.74402 57.474938,125.709131 57.56,125.7 C57.5927353,125.691071 57.6272647,125.691071 57.66,125.7 C57.6795285,125.693859 57.7004715,125.693859 57.72,125.7 C57.7635566,125.757144 57.7748736,125.832591 57.75,125.9 Z" id="Shape"></path>
            <path d="M64.49,127.19 C64.398813,127.191005 64.3093657,127.215087 64.23,127.26 C64.1770478,127.298225 64.1411555,127.355652 64.13,127.42 C64.1168687,127.512871 64.1168687,127.607129 64.13,127.7 L64.13,131.12 L63.86,131.12 L61.36,127.77 L61.36,130.23 C61.36,130.48 61.36,130.67 61.36,130.8 L61.78,130.8 L61.78,131 L60.69,131 L60.69,130.82 C60.8086331,130.835107 60.9253758,130.780627 60.99,130.68 C61.0455471,130.582704 61.0732258,130.471989 61.07,130.36 L61.07,127.21 L60.69,127.21 L60.69,127 L61.37,127 L63.82,130.28 L63.82,127.65 C63.809013,127.510216 63.809013,127.369784 63.82,127.23 L63.4,127.23 L63.4,127 L64.46,127 L64.49,127.19 Z" id="Shape"></path>
            <path d="M71.55,130.16 C71.5926363,130.271314 71.6293543,130.384806 71.66,130.5 C71.6771711,130.599263 71.6771711,130.700737 71.66,130.8 L72.05,130.8 L72.05,131 L70.78,131 L70.78,130.82 C71,130.82 71.12,130.72 71.12,130.54 C71.115242,130.447278 71.0949604,130.356011 71.06,130.27 L70.86,129.73 L69.36,129.73 L69.16,130.35 C69.16,130.47 69.08,130.61 69.02,130.75 L69.47,130.75 L69.47,131 L68.39,131 L68.39,130.82 C68.4723213,130.82292 68.5532628,130.798285 68.62,130.75 C68.6820293,130.70796 68.730634,130.64894 68.76,130.58 C68.8113621,130.476774 68.8548201,130.3698 68.89,130.26 L68.95,130.1 L70.13,126.88 L70.27,126.88 L71.55,130.16 Z M70.1,127.73 L69.86,128.38 L69.55,129.26 L69.45,129.54 L70.78,129.54 L70.37,128.44 L70.11,127.73 L70.1,127.73 Z" id="Shape"></path>
            <path d="M74.72,127.19 C74.6172849,127.186119 74.517018,127.221929 74.44,127.29 C74.3821386,127.341289 74.3463143,127.412938 74.34,127.49 C74.34,127.57 74.34,127.71 74.34,127.9 L74.34,130.36 C74.34,130.56 74.34,130.71 74.34,130.81 L75.41,130.81 C75.6200662,130.816624 75.8219923,130.72851 75.96,130.57 C76.105891,130.359746 76.1731518,130.104863 76.15,129.85 L76.34,129.85 L76.34,131.03 L73.43,131.03 L73.43,130.85 C73.5353952,130.85166 73.6380289,130.816269 73.72,130.75 C73.7750241,130.697685 73.8073375,130.625878 73.81,130.55 C73.817966,130.413449 73.817966,130.276551 73.81,130.14 L73.81,127.66 C73.81,127.5 73.81,127.36 73.81,127.24 L73.4,127.24 L73.4,127 L74.69,127 L74.72,127.19 Z" id="Shape"></path>
            <path d="M83.25,130.16 C83.2926363,130.271314 83.3293543,130.384806 83.36,130.5 C83.3721414,130.599631 83.3721414,130.700369 83.36,130.8 L83.75,130.8 L83.75,131 L82.48,131 L82.48,130.82 C82.7,130.82 82.81,130.72 82.81,130.54 C82.8208879,130.450329 82.8208879,130.359671 82.81,130.27 L82.61,129.73 L81.11,129.73 L80.91,130.35 C80.91,130.47 80.83,130.61 80.77,130.75 L81.22,130.75 L81.22,131 L80.09,131 L80.09,130.82 C80.2502793,130.821357 80.3958917,130.726906 80.46,130.58 C80.5113621,130.476774 80.5548201,130.3698 80.59,130.26 L80.65,130.1 L81.83,126.88 L82,126.88 L83.25,130.16 Z M81.8,127.73 L81.56,128.38 L81.25,129.26 L81.15,129.54 L82.48,129.54 L82.07,128.44 L81.81,127.73 L81.8,127.73 Z" id="Shape"></path>
            <path d="M86.42,127.19 C86.3146048,127.18834 86.2119711,127.223731 86.13,127.29 C86.0749759,127.342315 86.0426625,127.414122 86.04,127.49 C86.032034,127.626551 86.032034,127.763449 86.04,127.9 L86.04,130.36 C86.04,130.56 86.04,130.71 86.04,130.81 L87.11,130.81 C87.3200662,130.816624 87.5219923,130.72851 87.66,130.57 C87.8014334,130.357714 87.8682723,130.10443 87.85,129.85 L88,129.85 L88,131 L85.13,131 L85.13,130.82 C85.2353952,130.82166 85.3380289,130.786269 85.42,130.72 C85.4750241,130.667685 85.5073375,130.595878 85.51,130.52 C85.51,130.44 85.51,130.3 85.51,130.11 L85.51,127.63 C85.51,127.47 85.51,127.33 85.51,127.21 L85.1,127.21 L85.1,127 L86.39,127 L86.42,127.19 Z" id="Shape"></path>
            <path d="M94.12,127.19 C94.0039398,127.181755 93.8902594,127.22576 93.81,127.31 C93.7334544,127.428651 93.6982957,127.569286 93.71,127.71 L93.71,127.82 L93.86,130.43 C93.86,130.52 93.86,130.64 93.86,130.79 L94.28,130.79 L94.28,131 L93,131 L93,130.82 C93.1176638,130.825709 93.2316036,130.777928 93.31,130.69 C93.3820909,130.512716 93.4062335,130.319575 93.38,130.13 L93.23,127.69 C93.2348559,127.713081 93.2348559,127.736919 93.23,127.76 C93.23,127.76 93.23,127.83 93.23,127.87 L91.94,131.06 L91.7,131.06 L91.38,130.34 C91.09,129.7 90.87,129.19 90.71,128.81 C90.55,128.43 90.39,128.05 90.23,127.63 L90.23,127.89 C90.19,129.01 90.17,129.81 90.17,130.29 C90.17,130.34 90.17,130.39 90.17,130.41 C90.17,130.43 90.17,130.66 90.17,130.78 L90.6,130.78 L90.6,131 L89.48,131 L89.48,130.82 C89.64,130.82 89.74,130.77 89.79,130.68 C89.8425365,130.556676 89.8697423,130.424048 89.87,130.29 L90,127.21 L89.58,127.21 L89.58,127 L90.46,127 L91.25,128.81 L91.9,130.32 C91.9,130.21 92.04,129.96 92.19,129.58 L92.69,128.37 C92.91,127.86 93.1,127.37 93.26,127 L94.11,127 L94.12,127.19 Z" id="Shape"></path>
            <path d="M98.71,130.16 C98.7526363,130.271314 98.7893543,130.384806 98.82,130.5 C98.8321414,130.599631 98.8321414,130.700369 98.82,130.8 L99.21,130.8 L99.21,131 L97.94,131 L97.94,130.82 C98.16,130.82 98.27,130.72 98.27,130.54 C98.2808879,130.450329 98.2808879,130.359671 98.27,130.27 L98.07,129.73 L96.57,129.73 L96.37,130.35 C96.37,130.47 96.29,130.61 96.23,130.75 L96.68,130.75 L96.68,131 L95.55,131 L95.55,130.82 C95.7102793,130.821357 95.8558917,130.726906 95.92,130.58 C95.9713621,130.476774 96.0148201,130.3698 96.05,130.26 L96.11,130.1 L97.29,126.88 L97.43,126.88 L98.71,130.16 Z M97.26,127.73 L97.02,128.38 L96.71,129.26 L96.61,129.54 L97.94,129.54 L97.53,128.44 L97.27,127.73 L97.26,127.73 Z" id="Shape"></path>
            <path d="M106.26,127.5 C106.69487,127.881183 106.927706,128.442947 106.89,129.02 C106.888987,129.368674 106.803188,129.71187 106.64,130.02 C106.466868,130.331518 106.206083,130.585349 105.89,130.75 C105.522304,130.938513 105.113047,131.03137 104.7,131.02 L103.19,131.02 L103.19,130.84 C103.295395,130.84166 103.398029,130.806269 103.48,130.74 C103.537861,130.688711 103.573686,130.617062 103.58,130.54 C103.58,130.46 103.58,130.32 103.58,130.13 L103.58,127.65 C103.58,127.49 103.58,127.35 103.58,127.23 L103.17,127.23 L103.17,127 L104.53,127 C105.147445,126.958758 105.759756,127.135727 106.26,127.5 Z M104.2,127.29 C104.143701,127.342473 104.108199,127.413477 104.1,127.49 C104.1,127.57 104.1,127.71 104.1,127.9 L104.1,130.35 C104.1,130.55 104.1,130.7 104.1,130.8 L104.71,130.8 C105.014077,130.80668 105.313323,130.72317 105.57,130.56 C105.820076,130.401554 106.020949,130.176437 106.15,129.91 C106.292381,129.624474 106.364385,129.309027 106.36,128.99 C106.385793,128.509704 106.220412,128.038727 105.9,127.68 C105.522892,127.334813 105.019753,127.161067 104.51,127.2 C104.398707,127.186348 104.286679,127.218873 104.2,127.29 Z" id="Shape"></path>
            <path d="M111.35,128 L111.16,128 C111.186306,127.768033 111.113706,127.535713 110.96,127.36 C110.797923,127.234798 110.593557,127.177432 110.39,127.2 L109.89,127.2 C109.785518,127.195864 109.681862,127.220051 109.59,127.27 C109.526959,127.322662 109.487396,127.398191 109.48,127.48 C109.467087,127.613021 109.467087,127.746979 109.48,127.88 L109.48,128.8 L110.56,128.8 L110.56,128.3 L110.81,128.3 L110.81,129.51 L110.62,129.51 C110.638275,129.400759 110.638275,129.289241 110.62,129.18 C110.585327,129.113221 110.528874,129.060297 110.46,129.03 C110.360429,129.016901 110.259571,129.016901 110.16,129.03 L109.99,129.03 L109.57,129.03 L109.57,130.34 C109.57,130.54 109.57,130.69 109.57,130.79 L110.67,130.79 C110.891877,130.795027 111.108237,130.720542 111.28,130.58 C111.440996,130.388169 111.516832,130.138996 111.49,129.89 L111.69,129.89 L111.69,131.01 L108.69,131.01 L108.69,130.83 C108.795395,130.83166 108.898029,130.796269 108.98,130.73 C109.037861,130.678711 109.073686,130.607062 109.08,130.53 C109.08,130.45 109.08,130.31 109.08,130.12 L109.08,127.64 C109.08,127.48 109.08,127.34 109.08,127.22 L108.67,127.22 L108.67,127 L111.43,127 L111.35,128 Z" id="Shape"></path>
            <path d="M118.93,127.26 L118.93,126.95 L119.24,126.95 L119.24,128.29 L119,128.29 C118.983026,127.972285 118.847416,127.672515 118.62,127.45 C118.400382,127.24668 118.109074,127.138789 117.81,127.15 C117.541895,127.144906 117.279156,127.225479 117.06,127.38 C116.828028,127.540739 116.644686,127.762133 116.53,128.02 C116.391785,128.334653 116.326818,128.676582 116.34,129.02 C116.336418,129.34748 116.404688,129.671761 116.54,129.97 C116.670877,130.229085 116.863128,130.452234 117.1,130.62 C117.331516,130.772153 117.60297,130.852197 117.88,130.85 C118.136022,130.847214 118.388431,130.789228 118.62,130.68 C118.84942,130.564919 119.048213,130.396973 119.2,130.19 L119.35,130.31 C119.161142,130.592328 118.898201,130.817212 118.59,130.96 C118.318487,131.078871 118.026322,131.143419 117.73,131.15 C117.37796,131.155414 117.031475,131.061863 116.73,130.88 C116.434296,130.700857 116.192451,130.445192 116.03,130.14 C115.869009,129.831032 115.783346,129.488379 115.78,129.14 C115.763602,128.748056 115.838935,128.357697 116,128 C116.151376,127.677533 116.386132,127.401349 116.68,127.2 C117.003869,126.989354 117.383753,126.881314 117.77,126.89 C118.184721,126.896073 118.588357,127.024819 118.93,127.26 Z" id="Shape"></path>
            <path d="M124.78,127.19 C124.674327,127.186547 124.571085,127.222147 124.49,127.29 C124.432139,127.341289 124.396314,127.412938 124.39,127.49 C124.39,127.57 124.39,127.71 124.39,127.9 L124.39,130.34 C124.39,130.54 124.39,130.7 124.39,130.8 L124.8,130.8 L124.8,131 L123.51,131 L123.51,130.82 C123.612715,130.823881 123.712982,130.788071 123.79,130.72 C123.847861,130.668711 123.883686,130.597062 123.89,130.52 C123.89,130.44 123.89,130.3 123.89,130.11 L123.89,129.11 L121.89,129.11 L121.89,130.34 C121.89,130.54 121.89,130.7 121.89,130.8 L122.3,130.8 L122.3,131 L121.01,131 L121.01,130.82 C121.115395,130.82166 121.218029,130.786269 121.3,130.72 C121.357861,130.668711 121.393686,130.597062 121.4,130.52 C121.4,130.44 121.4,130.3 121.4,130.11 L121.4,127.63 C121.4,127.47 121.4,127.33 121.4,127.21 L120.99,127.21 L120.99,127 L122.28,127 L122.28,127.19 C122.177285,127.186119 122.077018,127.221929 122,127.29 C121.942139,127.341289 121.906314,127.412938 121.9,127.49 C121.9,127.57 121.9,127.71 121.9,127.9 L121.9,128.85 L123.9,128.85 L123.9,127.65 C123.9,127.49 123.9,127.35 123.9,127.23 L123.49,127.23 L123.49,127 L124.78,127 L124.78,127.19 Z" id="Shape"></path>
            <path d="M129.31,130.16 C129.352636,130.271314 129.389354,130.384806 129.42,130.5 C129.432141,130.599631 129.432141,130.700369 129.42,130.8 L129.81,130.8 L129.81,131 L128.49,131 L128.49,130.82 C128.72,130.82 128.83,130.72 128.83,130.54 C128.824471,130.44829 128.807678,130.357609 128.78,130.27 L128.57,129.73 L127.08,129.73 C127.02,129.89 126.96,130.1 126.88,130.35 L126.74,130.75 L127.18,130.75 L127.18,131 L126.11,131 L126.11,130.82 C126.192125,130.821469 126.272618,130.796971 126.34,130.75 C126.399472,130.705221 126.447455,130.646955 126.48,130.58 C126.531362,130.476774 126.57482,130.3698 126.61,130.26 L126.67,130.1 L127.85,126.88 L128,126.88 L129.31,130.16 Z M127.86,127.73 L127.62,128.38 L127.31,129.26 L127.21,129.54 L128.53,129.54 L128.13,128.44 L127.87,127.73 L127.86,127.73 Z" id="Shape"></path>
            <path d="M135.76,127.19 C135.647127,127.183376 135.537167,127.22736 135.46,127.31 C135.383454,127.428651 135.348296,127.569286 135.36,127.71 L135.36,127.82 L135.51,130.43 C135.51,130.52 135.51,130.64 135.51,130.79 L135.93,130.79 L135.93,131 L134.64,131 L134.64,130.82 C134.757664,130.825709 134.871604,130.777928 134.95,130.69 C135.008697,130.56868 135.036194,130.434631 135.03,130.3 C135.03,130.23 135.03,130.17 135.03,130.13 L134.88,127.69 C134.876579,127.713208 134.876579,127.736792 134.88,127.76 C134.88,127.76 134.88,127.83 134.88,127.87 L133.59,131.06 L133.41,131.06 L133.09,130.34 C132.8,129.7 132.57,129.19 132.41,128.81 C132.25,128.43 132.1,128.05 131.94,127.63 L131.94,127.89 C131.94,129.01 131.88,129.81 131.87,130.29 L131.87,130.41 C131.87,130.54 131.87,130.66 131.87,130.78 L132.3,130.78 L132.3,131 L131.2,131 L131.2,130.82 C131.37,130.82 131.47,130.77 131.52,130.68 C131.572537,130.556676 131.599742,130.424048 131.6,130.29 L131.73,127.21 L131.31,127.21 L131.31,127 L132.19,127 L132.97,128.81 C133.26,129.47 133.47,129.98 133.63,130.32 C133.68,130.21 133.77,129.96 133.92,129.58 C134.07,129.2 134.23,128.81 134.42,128.37 C134.61,127.93 134.83,127.37 134.99,127 L135.83,127 L135.76,127.19 Z" id="Shape"></path>
            <path d="M139.89,127.23 C140.131458,127.388152 140.271984,127.661607 140.26,127.95 C140.254817,128.165472 140.165006,128.37024 140.01,128.52 C139.820996,128.709768 139.575216,128.832657 139.31,128.87 C139.646947,128.846013 139.981099,128.945547 140.25,129.15 C140.468546,129.33234 140.59039,129.605567 140.58,129.89 C140.588738,130.103008 140.529174,130.313234 140.41,130.49 C140.288614,130.661392 140.122611,130.79627 139.93,130.88 C139.70804,130.970842 139.469776,131.015091 139.23,131.01 L137.55,131.01 L137.55,130.83 C137.655395,130.83166 137.758029,130.796269 137.84,130.73 C137.900217,130.676296 137.936263,130.600599 137.94,130.52 C137.94,130.44 137.94,130.3 137.94,130.09 L137.94,127.68 C137.94,127.47 137.94,127.32 137.94,127.22 L137.53,127.22 L137.53,127 L138.83,127 C139.198256,126.97086 139.566937,127.050857 139.89,127.23 Z M138.45,129.05 L138.45,130.35 C138.45,130.55 138.45,130.7 138.45,130.8 L139,130.8 C139.259751,130.811663 139.515114,130.730088 139.72,130.57 C140.063519,130.189381 140.063519,129.610619 139.72,129.23 C139.513516,129.07296 139.259286,128.991748 139,129 L138.45,129.05 Z M138.6,127.25 C138.538893,127.288358 138.49568,127.349576 138.48,127.42 C138.466187,127.532912 138.466187,127.647088 138.48,127.76 L138.48,128.83 L138.9,128.83 C139.146856,128.853457 139.390634,128.761116 139.56,128.58 C139.695477,128.40992 139.766333,128.197351 139.76,127.98 C139.786129,127.753067 139.691217,127.529074 139.51,127.39 C139.333234,127.270826 139.123008,127.211262 138.91,127.22 C138.805784,127.203898 138.699194,127.214213 138.6,127.25 Z" id="Shape"></path>
            <path d="M145,128 L144.81,128 C144.83901,127.766018 144.761996,127.531308 144.6,127.36 C144.439438,127.231813 144.233816,127.174095 144.03,127.2 L143.54,127.2 C143.435374,127.19428 143.33129,127.218566 143.24,127.27 C143.177604,127.32458 143.135345,127.398533 143.12,127.48 C143.112264,127.613221 143.112264,127.746779 143.12,127.88 L143.12,128.8 L144.2,128.8 L144.2,128.3 L144.45,128.3 L144.45,129.51 L144.26,129.51 C144.267992,129.397654 144.250913,129.284936 144.21,129.18 C144.178359,129.110983 144.120913,129.057128 144.05,129.03 C143.953742,129.017432 143.856258,129.017432 143.76,129.03 L143.58,129.03 L143.16,129.03 L143.16,130.34 C143.16,130.54 143.16,130.69 143.16,130.79 L144.26,130.79 C144.482156,130.796843 144.699135,130.722145 144.87,130.58 C145.038964,130.392234 145.119095,130.140915 145.09,129.89 L145.28,129.89 L145.28,131.01 L142.28,131.01 L142.28,130.83 C142.385673,130.833453 142.488915,130.797853 142.57,130.73 C142.627861,130.678711 142.663686,130.607062 142.67,130.53 C142.67,130.45 142.67,130.31 142.67,130.12 L142.67,127.64 C142.67,127.48 142.67,127.34 142.67,127.22 L142.25,127.22 L142.25,127 L145,127 L145,128 Z" id="Shape"></path>
            <path d="M149.38,127.27 C149.626383,127.44237 149.766291,127.729749 149.75,128.03 C149.760141,128.286479 149.678602,128.538184 149.52,128.74 C149.302417,128.983415 149.003993,129.139732 148.68,129.18 C148.749242,129.226004 148.810117,129.283498 148.86,129.35 C148.86,129.42 148.99,129.53 149.08,129.68 L149.47,130.29 C149.532742,130.398068 149.602911,130.501651 149.68,130.6 C149.731969,130.671978 149.80059,130.730305 149.88,130.77 C149.969528,130.816589 150.069077,130.840618 150.17,130.84 L150.17,131 L149.44,131 C149.341022,130.922725 149.253486,130.831823 149.18,130.73 C149.11,130.64 149.03,130.52 148.93,130.37 L148.55,129.75 L148.47,129.63 C148.422304,129.543191 148.368851,129.459671 148.31,129.38 C148.271062,129.314458 148.220184,129.256796 148.16,129.21 L147.77,129.21 L147.77,130.32 C147.77,130.52 147.77,130.68 147.77,130.78 L148.18,130.78 L148.18,131 L146.89,131 L146.89,130.82 C146.995395,130.82166 147.098029,130.786269 147.18,130.72 C147.231268,130.665105 147.262916,130.594778 147.27,130.52 C147.27,130.44 147.27,130.3 147.27,130.11 L147.27,127.63 C147.27,127.47 147.27,127.33 147.27,127.21 L146.86,127.21 L146.86,127 L148.17,127 C148.590659,126.974913 149.009909,127.068464 149.38,127.27 Z M147.88,127.27 C147.826459,127.319239 147.794182,127.387381 147.79,127.46 C147.782034,127.596551 147.782034,127.733449 147.79,127.87 L147.79,129 L148.05,129 C148.83,129 149.22,128.69 149.22,128.07 C149.235991,127.82716 149.144597,127.589537 148.97,127.42 C148.74531,127.254447 148.468082,127.176254 148.19,127.2 C148.077159,127.187845 147.964467,127.224197 147.88,127.3 L147.88,127.27 Z" id="Shape"></path>
            <path d="M152.87,127.19 C152.764327,127.186547 152.661085,127.222147 152.58,127.29 C152.522139,127.341289 152.486314,127.412938 152.48,127.49 C152.48,127.57 152.48,127.71 152.48,127.9 L152.48,130.34 C152.492482,130.493079 152.492482,130.646921 152.48,130.8 L152.9,130.8 L152.9,131 L151.61,131 L151.61,130.82 C151.712404,130.821923 151.811982,130.786359 151.89,130.72 C151.947861,130.668711 151.983686,130.597062 151.99,130.52 C151.99,130.44 151.99,130.3 151.99,130.11 L151.99,127.63 C151.99,127.47 151.99,127.33 151.99,127.21 L151.58,127.21 L151.58,127 L152.87,127 L152.87,127.19 Z M153.05,125.9 C153.05,125.99 152.99,126.07 152.87,126.15 L152.04,126.66 L151.91,126.49 L152.63,125.8 C152.694693,125.74402 152.774938,125.709131 152.86,125.7 C152.892735,125.691071 152.927265,125.691071 152.96,125.7 C152.979529,125.693859 153.000471,125.693859 153.02,125.7 C153.063557,125.757144 153.074874,125.832591 153.05,125.9 Z" id="Shape"></path>
            <polygon id="Shape" points="39.82 93.22 40.53 93.22 40.53 99.69 43.29 99.69 43.29 100.38 39.82 100.38"></polygon>
            <path d="M49.15,93.22 L52.49,100.38 L51.72,100.38 L50.59,98 L47.5,98 L46.39,100.36 L45.59,100.36 L49,93.22 L49.15,93.22 Z M49.06,94.74 L47.83,97.33 L50.28,97.33 L49.06,94.74 Z" id="Shape"></path>
            <polygon id="Shape" points="60 93.22 64.1 93.22 64.1 93.92 60.67 93.92 60.67 96.16 64 96.16 64 96.86 60.67 96.86 60.67 99.68 64 99.68 64 100.38 60 100.38"></polygon>
            <path d="M66.56,99.05 L67.17,98.68 C67.59,99.47 68.09,99.86 68.65,99.86 C68.8863188,99.8628804 69.1197597,99.8079531 69.33,99.7 C69.525677,99.5932771 69.6908878,99.438392 69.81,99.25 C70.0625747,98.8402353 70.0305594,98.3159855 69.73,97.94 C69.3814913,97.499314 68.9704869,97.1118918 68.51,96.79 C68.0987813,96.5016931 67.7228698,96.1660578 67.39,95.79 C67.1482554,95.484588 67.0114826,95.1093393 67,94.72 C66.994406,94.4187356 67.0704251,94.1215701 67.22,93.86 C67.3711033,93.6025422 67.593339,93.3941962 67.86,93.26 C68.1284649,93.1084173 68.4316981,93.0291632 68.74,93.03 C69.0910126,93.0221003 69.4372871,93.1121317 69.74,93.29 C70.1104088,93.5289008 70.4271089,93.8421955 70.67,94.21 L70.09,94.65 C69.9027508,94.3780737 69.669204,94.1411422 69.4,93.95 C69.2116604,93.8307066 68.9929339,93.7682133 68.77,93.77 C68.4924641,93.7356262 68.2132149,93.8190383 68,94 C67.8143386,94.1640221 67.7116509,94.4024042 67.72,94.65 C67.7178334,94.8057409 67.7520765,94.9598347 67.82,95.1 C67.9064741,95.2799721 68.0250862,95.4426402 68.17,95.58 C68.27,95.67 68.58,95.91 69.1,96.29 C69.5937639,96.6239114 70.0266894,97.0399258 70.38,97.52 C70.5968615,97.8350937 70.715203,98.2075213 70.72,98.59 C70.7190988,99.1052573 70.5056344,99.5973108 70.13,99.95 C69.7460272,100.325676 69.2270706,100.531097 68.69,100.52 C68.2707096,100.522592 67.8600666,100.400791 67.51,100.17 C67.1092504,99.8770124 66.7836793,99.4931811 66.56,99.05 Z" id="Shape"></path>
            <path d="M79.07,99.6 L80.13,101 L79.25,101 L78.52,100.07 C77.9187979,100.437804 77.2246219,100.625232 76.52,100.61 C75.5229091,100.620668 74.5628418,100.232722 73.8530731,99.5323415 C73.1433044,98.8319612 72.7426091,97.8771446 72.74,96.88 C72.7369931,96.2074251 72.909323,95.545678 73.24,94.96 C73.562667,94.383968 74.0363298,93.9068477 74.61,93.58 C75.1880105,93.2483353 75.8436067,93.07581 76.51,93.08 C77.5149009,93.0610275 78.4836106,93.4550176 79.19,94.17 C79.9026654,94.8589607 80.3035335,95.8087653 80.3,96.8 C80.306021,97.3219455 80.2038758,97.8394815 80,98.32 C79.7769401,98.8035261 79.4609408,99.2384498 79.07,99.6 Z M78.63,99 C79.2440732,98.415152 79.5819396,97.5977333 79.56,96.75 C79.5664328,96.2114505 79.4319896,95.6805724 79.17,95.21 C78.6111661,94.2818058 77.6133011,93.7072774 76.53,93.69 C75.4405547,93.6846209 74.4338214,94.2702871 73.9,95.22 C73.6337773,95.7001895 73.4960003,96.240964 73.5,96.79 C73.4663973,97.6201445 73.7904573,98.4248326 74.39,99 C74.9427904,99.5764847 75.7114576,99.8955541 76.51,99.88 C77.0576783,99.8883088 77.5971797,99.7465167 78.07,99.47 L76.48,97.47 L77.35,97.47 L78.63,99 Z" id="Shape"></path>
            <path d="M83,93.22 L83.71,93.22 L83.71,97.54 C83.6910668,97.8730645 83.6910668,98.2069355 83.71,98.54 C83.7378677,98.7926875 83.8233998,99.0355986 83.96,99.25 C84.1142541,99.4600324 84.3212297,99.6256128 84.56,99.73 C84.8136961,99.849413 85.0896664,99.9141468 85.37,99.92 C85.6081294,99.9203766 85.8435188,99.8692049 86.06,99.77 C86.2685122,99.6711156 86.4528321,99.5277557 86.6,99.35 C86.7516067,99.1585107 86.860693,98.9369291 86.92,98.7 C86.9892099,98.3174476 87.0160386,97.9284316 87,97.54 L87,93.22 L87.72,93.22 L87.72,97.54 C87.737093,98.0633784 87.6729996,98.5862458 87.53,99.09 C87.3932632,99.4949035 87.130421,99.8453597 86.78,100.09 C86.392879,100.392721 85.9110771,100.548598 85.42,100.53 C84.8968629,100.543621 84.3815557,100.400867 83.94,100.12 C83.5417632,99.8632317 83.2476259,99.4734111 83.11,99.02 C83.0091055,98.5335526 82.9721266,98.036018 83,97.54 L83,93.22 Z" id="Shape"></path>
            <polygon id="Shape" points="91.18 93.22 91.89 93.22 91.89 100.38 91.18 100.38"></polygon>
            <polygon id="Shape" points="95.34 100.38 95.34 93.22 95.49 93.22 100.26 98.71 100.26 93.22 101 93.22 101 100.38 100.84 100.38 96.08 95 96.08 100.43"></polygon>
            <path d="M107.44,93.22 L110.78,100.38 L110,100.38 L108.88,98 L105.79,98 L104.67,100.36 L103.88,100.36 L107.26,93.2 L107.44,93.22 Z M107.35,94.74 L106.12,97.33 L108.57,97.33 L107.35,94.74 Z" id="Shape"></path>
            <path d="M118.24,100.38 L118.24,93.22 L119.73,93.22 C120.514882,93.1836542 121.300695,93.2679688 122.06,93.47 C122.731054,93.6973131 123.305508,94.144894 123.69,94.74 C124.093312,95.3832746 124.298494,96.1309739 124.28,96.89 C124.293472,97.5505055 124.131277,98.2027391 123.81,98.78 C123.537156,99.298087 123.115824,99.7229009 122.6,100 C121.947527,100.293499 121.234478,100.427196 120.52,100.39 L118.24,100.38 Z M118.93,99.7 L119.76,99.7 C120.451562,99.7293716 121.144012,99.6688662 121.82,99.52 C122.347033,99.3450363 122.796293,98.9912876 123.09,98.52 C123.411072,98.0237269 123.571672,97.4406815 123.55,96.85 C123.566228,96.2230043 123.391886,95.6058335 123.05,95.08 C122.71634,94.5915307 122.220279,94.2372015 121.65,94.08 C120.925531,93.9151907 120.182287,93.8479288 119.44,93.88 L118.93,93.88 L118.93,99.7 Z" id="Shape"></path>
            <polygon id="Shape" points="126.87 93.22 131 93.22 131 93.92 127.61 93.92 127.61 96.16 131 96.16 131 96.86 127.63 96.86 127.63 99.68 131 99.68 131 100.38 126.92 100.38"></polygon>
            <path d="M35.76,105.54 L35.21,106.07 C34.832352,105.694604 34.3881169,105.392796 33.9,105.18 C33.4633632,104.980839 32.9898848,104.875243 32.51,104.87 C31.9461542,104.86929 31.391646,105.013944 30.9,105.29 C30.4110134,105.547519 30.0026634,105.935105 29.72,106.41 C29.4448746,106.861929 29.299559,107.380913 29.3,107.91 C29.2996387,108.449876 29.4484466,108.979355 29.73,109.44 C30.0174626,109.925736 30.4324769,110.323458 30.93,110.59 C31.4457919,110.867908 32.0241739,111.009061 32.61,111 C33.287472,111.023973 33.9510423,110.803966 34.48,110.38 C34.983929,109.98154 35.3079113,109.398372 35.38,108.76 L33.1,108.76 L33.1,108.07 L36.19,108.07 C36.2276749,109.049068 35.8668701,110.001593 35.19,110.71 C34.4946403,111.388234 33.5505304,111.749962 32.58,111.71 C31.3773783,111.761655 30.2171208,111.260718 29.43,110.35 C28.84785,109.682979 28.5311099,108.825289 28.54,107.94 C28.5391158,106.584974 29.269301,105.334866 30.45,104.67 C31.0659787,104.344027 31.7531001,104.175682 32.45,104.18 C33.0394126,104.176293 33.6238119,104.288416 34.17,104.51 C34.7583872,104.753479 35.2972599,105.102561 35.76,105.54 Z" id="Shape"></path>
            <polygon id="Shape" points="39 104.34 43.11 104.34 43.11 105.04 39.67 105.04 39.67 107.29 43 107.29 43 107.99 39.67 107.99 39.67 110.81 43 110.81 43 111.51 39 111.51"></polygon>
            <polygon id="Shape" points="46.1 111.51 46.1 104.34 46.25 104.34 51 109.83 51 104.34 51.71 104.34 51.71 111.51 51.55 111.51 46.82 106.08 46.82 111.51"></polygon>
            <polygon id="Shape" points="55.27 104.34 59.38 104.34 59.38 105.04 56 105.04 56 107.29 59.36 107.29 59.36 107.99 56 107.99 56 110.81 59.36 110.81 59.36 111.51 55.27 111.51"></polygon>
            <path d="M62.45,104.34 L63.88,104.34 C64.4219822,104.319345 64.9646727,104.352845 65.5,104.44 C65.8908106,104.535002 66.2411254,104.752198 66.5,105.06 C66.7672168,105.398322 66.9086089,105.818963 66.9,106.25 C66.8963425,106.602172 66.7997532,106.947134 66.62,107.25 C66.4307923,107.548356 66.1552457,107.782047 65.83,107.92 C65.3802976,108.090886 64.9006961,108.169119 64.42,108.15 L67,111.51 L66.11,111.51 L63.53,108.18 L63.13,108.18 L63.13,111.51 L62.41,111.51 L62.45,104.34 Z M63.17,105.04 L63.17,107.48 L64.4,107.48 C64.7620821,107.495632 65.1241284,107.448262 65.47,107.34 C65.6851658,107.252002 65.8695461,107.10241 66,106.91 C66.1276237,106.710112 66.1936941,106.477127 66.19,106.24 C66.1935079,106.006028 66.1273727,105.776295 66,105.58 C65.8824929,105.386263 65.7026738,105.238177 65.49,105.16 C65.1472853,105.053619 64.7882646,105.009589 64.43,105.03 L63.17,105.04 Z" id="Shape"></path>
            <path d="M72.59,104.34 L75.94,111.51 L75.16,111.51 L74,109.15 L71,109.15 L69.88,111.51 L69,111.51 L72.39,104.34 L72.59,104.34 Z M72.5,105.86 L71.28,108.46 L73.73,108.46 L72.5,105.86 Z" id="Shape"></path>
            <polygon id="Shape" points="78.84 104.34 79.56 104.34 79.56 110.81 82.32 110.81 82.32 111.51 78.84 111.51"></polygon>
            <path d="M93.53,104.34 L96.87,111.51 L96.1,111.51 L95,109.15 L91.88,109.15 L90.77,111.51 L90,111.51 L93.39,104.34 L93.53,104.34 Z M93.44,105.86 L92.21,108.46 L94.66,108.46 L93.44,105.86 Z" id="Shape"></path>
            <path d="M99.22,104.34 L100.65,104.34 C101.188657,104.319679 101.727998,104.353178 102.26,104.44 C102.652785,104.530247 103.004507,104.748314 103.26,105.06 C103.531825,105.395808 103.6738,105.818183 103.66,106.25 C103.659377,106.60126 103.566254,106.94616 103.39,107.25 C103.198455,107.546312 102.923611,107.779407 102.6,107.92 C102.150298,108.090886 101.670696,108.169119 101.19,108.15 L103.76,111.48 L102.88,111.48 L100.3,108.15 L99.9,108.15 L99.9,111.48 L99.18,111.48 L99.22,104.34 Z M99.94,105.04 L99.94,107.48 L101.17,107.48 C101.528811,107.495903 101.887621,107.448513 102.23,107.34 C102.449465,107.254786 102.637806,107.10481 102.77,106.91 C102.897624,106.710112 102.963694,106.477127 102.96,106.24 C102.963508,106.006028 102.897373,105.776295 102.77,105.58 C102.6465,105.387582 102.464094,105.240254 102.25,105.16 C101.926685,105.0592 101.588341,105.015215 101.25,105.03 L99.94,105.04 Z" id="Shape"></path>
            <path d="M106.67,104.34 L108.1,104.34 C108.641971,104.320263 109.184571,104.353757 109.72,104.44 C110.112495,104.530951 110.464005,104.748887 110.72,105.06 C110.991825,105.395808 111.1338,105.818183 111.12,106.25 C111.119377,106.60126 111.026254,106.94616 110.85,107.25 C110.658455,107.546312 110.383611,107.779407 110.06,107.92 C109.610298,108.090886 109.130696,108.169119 108.65,108.15 L111.22,111.48 L110.34,111.48 L107.76,108.15 L107.36,108.15 L107.36,111.48 L106.64,111.48 L106.67,104.34 Z M107.39,105.04 L107.39,107.48 L108.62,107.48 C108.978811,107.495903 109.337621,107.448513 109.68,107.34 C109.899465,107.254786 110.087806,107.10481 110.22,106.91 C110.347624,106.710112 110.413694,106.477127 110.41,106.24 C110.413508,106.006028 110.347373,105.776295 110.22,105.58 C110.102493,105.386263 109.922674,105.238177 109.71,105.16 C109.367285,105.053619 109.008265,105.009589 108.65,105.03 L107.39,105.04 Z" id="Shape"></path>
            <path d="M116.41,104.34 L119.75,111.51 L119,111.51 L117.87,109.15 L114.79,109.15 L113.67,111.51 L112.87,111.51 L116.26,104.34 L116.41,104.34 Z M116.32,105.86 L115.09,108.46 L117.54,108.46 L116.32,105.86 Z" id="Shape"></path>
            <polygon id="Shape" points="122.67 111.51 122.67 104.34 122.82 104.34 127.59 109.83 127.59 104.34 128.3 104.34 128.3 111.51 128.14 111.51 123.41 106.08 123.41 111.51"></polygon>
            <path d="M131.84,111.51 L131.84,104.34 L133.32,104.34 C134.108727,104.305882 134.898,104.393578 135.66,104.6 C136.331815,104.825899 136.906694,105.27381 137.29,105.87 C138.003459,107.097362 138.0486,108.602076 137.41,109.87 C137.13269,110.38225 136.71225,110.80269 136.2,111.08 C135.547182,111.372398 134.834401,111.506044 134.12,111.47 L131.84,111.51 Z M132.52,110.83 L133.35,110.83 C134.042184,110.863834 134.735681,110.799871 135.41,110.64 C135.929895,110.484148 136.37907,110.151687 136.68,109.7 C137.001657,109.203542 137.165508,108.621348 137.15,108.03 C137.167633,107.399699 136.993259,106.778927 136.65,106.25 C136.312671,105.765139 135.818056,105.411843 135.25,105.25 C134.514983,105.064047 133.757909,104.979927 133,105 L132.49,105 L132.52,110.83 Z" id="Shape"></path>
            <path d="M143.67,104.16 C144.691477,104.130747 145.679568,104.52526 146.4,105.25 C147.850746,106.734401 147.850746,109.105599 146.4,110.59 C145.699732,111.309115 144.733597,111.707148 143.73,111.69 C142.708523,111.719253 141.720432,111.32474 141,110.6 C140.284512,109.909652 139.886382,108.954142 139.9,107.96 C139.896993,107.287425 140.069323,106.625678 140.4,106.04 C140.721925,105.466776 141.191536,104.990259 141.76,104.66 C142.340009,104.324339 142.999919,104.151587 143.67,104.16 Z M143.67,104.86 C143.142655,104.862454 142.625274,105.003871 142.17,105.27 C141.703073,105.536257 141.316257,105.923073 141.05,106.39 C140.785021,106.867064 140.64727,107.404292 140.65,107.95 C140.635592,108.762022 140.957727,109.543833 141.54,110.11 C142.097957,110.68497 142.868923,111.003491 143.67,110.99 C144.212267,110.990576 144.745729,110.852908 145.22,110.59 C145.681961,110.325077 146.065077,109.941961 146.33,109.48 C146.591919,109.002163 146.72624,108.464877 146.72,107.92 C146.736743,106.827613 146.158313,105.812488 145.21,105.27 C144.749326,105.008107 144.229866,104.867062 143.7,104.86 L143.67,104.86 Z" id="Shape"></path>
            <path d="M103,78.85 L73.61,78.85 L73.61,49.44 L103,49.44 L103,78.85 Z M74.31,78.13 L102.31,78.13 L102.31,50.13 L74.31,50.13 L74.31,78.13 Z" id="Shape"></path>
            <rect id="Rectangle-path" x="95.19" y="53.89" width="1" height="24.28"></rect>
            <path d="M100.64,57.87 C99.8891999,57.8761258 99.2044567,57.441803 98.89,56.76 C98.5008776,57.6352307 97.5262101,58.0897941 96.6055909,57.8253979 C95.6849717,57.5610018 95.1000363,56.65853 95.2346293,55.7102001 C95.3692223,54.7618701 96.182169,54.0577946 97.14,54.06 L97.31,54.06 C96.8498991,53.3800611 96.8730217,52.4828175 97.3675336,51.8274797 C97.8620456,51.1721418 98.7185135,50.9037331 99.4985962,51.1596253 C100.278679,51.4155176 100.809747,52.139083 100.82,52.96 C100.818662,53.355401 100.692691,53.7403145 100.46,54.06 L100.64,54.06 C101.353537,54.0082687 102.036157,54.3596234 102.408703,54.9703774 C102.781249,55.5811313 102.781249,56.3488687 102.408703,56.9596226 C102.036157,57.5703766 101.353537,57.9217313 100.64,57.87 Z M98.89,55.74 L99.06,55.74 L99.06,56 C99.0559496,56.6359001 99.4358891,57.211441 100.022226,57.4576011 C100.608562,57.7037612 101.285481,57.5719183 101.736573,57.1236988 C102.187666,56.6754793 102.323832,55.999417 102.081423,55.4115196 C101.839014,54.8236222 101.265913,54.4400129 100.63,54.44 C100.390609,54.4382523 100.154191,54.493074 99.94,54.6 L99.8,54.66 L99.62,54.39 L99.76,54.28 C100.331871,53.8991976 100.584815,53.1873694 100.381463,52.5310961 C100.17811,51.8748228 99.5669941,51.4307315 98.88,51.44 C98.0168032,51.4399825 97.3154981,52.1368207 97.31,53 C97.3229733,53.5041 97.5803599,53.9703801 98,54.25 L98.12,54.33 L98.01,54.65 L97.82,54.57 C97.6097597,54.4620469 97.3763188,54.4071196 97.14,54.41 C96.283699,54.4156479 95.5920228,55.1104958 95.5902923,55.9668136 C95.5885619,56.8231315 96.2774242,57.5207691 97.1336953,57.5298778 C97.9899665,57.5389865 98.6935137,56.8561609 98.71,56 L98.71,55.82 L98.89,55.74 Z" id="Shape"></path>
            <rect id="Rectangle-path" x="98.71" y="55.93" width="1" height="22.13"></rect>
            <polygon id="Shape" points="98.8 78.46 98.55 78.21 100.47 76.31 100.47 73.07 98.78 71.41 99.03 71.15 100.83 72.93 100.83 76.46 100.77 76.51"></polygon>
            <polygon id="Shape" points="102.27 78.25 100.48 76.47 100.48 72.94 102.29 71.15 102.54 71.41 100.83 73.09 100.83 76.33 102.52 78"></polygon>
            <polygon id="Shape" points="95.5 54.01 95.25 53.76 98.9 50.15 102.53 53.74 102.29 54 98.9 50.65"></polygon>
            <polygon id="Shape" points="95.16 78.54 94.91 78.29 96.91 76.31 96.91 73.07 95.23 71.41 95.47 71.15 97.27 72.93 97.27 76.46 97.22 76.51"></polygon>
            <polygon id="Shape" points="98.72 78.25 96.92 76.47 96.92 72.94 98.73 71.15 98.98 71.41 97.28 73.09 97.28 76.33 98.96 78"></polygon>
            <rect id="Rectangle-path" x="88.14" y="53.89" width="1" height="24.28"></rect>
            <path d="M93.59,57.87 C92.8406434,57.8711099 92.158379,57.4383593 91.84,56.76 C91.4508776,57.6352307 90.4762101,58.0897941 89.5555909,57.8253979 C88.6349717,57.5610018 88.0500363,56.65853 88.1846293,55.7102001 C88.3192223,54.7618701 89.132169,54.0577946 90.09,54.06 L90.27,54.06 C90.0402503,53.7394181 89.917745,53.3544016 89.92,52.96 C89.9928011,51.9505816 90.8329597,51.1688344 91.845,51.1688344 C92.8570403,51.1688344 93.6971989,51.9505816 93.77,52.96 C93.772255,53.3544016 93.6497497,53.7394181 93.42,54.06 L93.59,54.06 C94.3035368,54.0082687 94.9861571,54.3596234 95.3587029,54.9703774 C95.7312487,55.5811313 95.7312487,56.3488687 95.3587029,56.9596226 C94.9861571,57.5703766 94.3035368,57.9217313 93.59,57.87 Z M91.84,55.74 L92,55.74 L92,55.93 C91.9755043,56.574856 92.345632,57.1697992 92.9349272,57.4328019 C93.5242225,57.6958045 94.2142341,57.5740019 94.677868,57.1251334 C95.1415019,56.6762649 95.2855654,55.9905553 95.0417665,55.3930594 C94.7979676,54.7955635 94.2153109,54.4063808 93.57,54.41 C93.3336812,54.4071196 93.1002403,54.4620469 92.89,54.57 L92.71,54.65 L92.6,54.34 L92.71,54.25 C93.1372614,53.9749097 93.4025454,53.5078606 93.42,53 C93.3545056,52.1787035 92.6689037,51.5455986 91.845,51.5455986 C91.0210963,51.5455986 90.3354944,52.1787035 90.27,53 C90.2918782,53.5116812 90.5650986,53.9795243 91,54.25 L91.15,54.35 L90.96,54.62 L90.82,54.62 C90.6058091,54.513074 90.3693906,54.4582523 90.13,54.46 C89.4954715,54.4519159 88.9192792,54.8290022 88.6727065,55.4137189 C88.4261337,55.9984356 88.5583242,56.6742442 89.00704,57.12296 C89.4557558,57.5716758 90.1315644,57.7038663 90.7162811,57.4572935 C91.3009978,57.2107208 91.6780841,56.6345285 91.67,56 L91.67,55.81 L91.84,55.74 Z" id="Shape"></path>
            <rect id="Rectangle-path" x="91.67" y="55.93" width="1" height="22.13"></rect>
            <polygon id="Shape" points="91.76 78.46 91.51 78.21 93.43 76.31 93.43 73.07 91.74 71.41 91.99 71.15 93.78 72.93 93.78 76.46 93.73 76.51"></polygon>
            <polygon id="Shape" points="95.23 78.25 93.44 76.47 93.44 72.94 95.25 71.15 95.5 71.41 93.79 73.09 93.79 76.33 95.48 78"></polygon>
            <polygon id="Shape" points="88.45 54.01 88.21 53.76 91.85 50.15 95.49 53.74 95.24 54 91.85 50.65"></polygon>
            <polygon id="Shape" points="88.2 78.46 87.95 78.21 89.87 76.31 89.87 73.07 88.18 71.41 88.43 71.15 90.22 72.93 90.22 76.46 90.17 76.51"></polygon>
            <polygon id="Shape" points="91.67 78.25 89.88 76.47 89.88 72.94 89.93 72.89 91.69 71.15 91.94 71.41 90.23 73.09 90.23 76.33 91.92 78"></polygon>
            <rect id="Rectangle-path" x="81.09" y="53.89" width="1" height="24.28"></rect>
            <path d="M86.54,57.87 C85.7906434,57.8711099 85.108379,57.4383593 84.79,56.76 C84.4027982,57.6304733 83.4358517,58.0853617 82.5183818,57.8286555 C81.600912,57.5719493 81.0104442,56.6812997 81.1312139,55.7362792 C81.2519835,54.7912587 82.0474588,54.0777267 83,54.06 L83.17,54.06 C82.6073934,53.258 82.7348856,52.1617214 83.466526,51.5102365 C84.1981664,50.8587516 85.3018336,50.8587516 86.033474,51.5102365 C86.7651144,52.1617214 86.8926066,53.258 86.33,54.06 L86.5,54.06 C87.2135368,54.0082687 87.8961571,54.3596234 88.2687029,54.9703774 C88.6412487,55.5811313 88.6412487,56.3488687 88.2687029,56.9596226 C87.8961571,57.5703766 87.2135368,57.9217313 86.5,57.87 L86.54,57.87 Z M84.79,55.74 L85,55.74 L85,56 C84.9959496,56.6359001 85.3758891,57.211441 85.9622256,57.4576011 C86.5485621,57.7037612 87.2254807,57.5719183 87.6765733,57.1236988 C88.127666,56.6754793 88.2638316,55.999417 88.021423,55.4115196 C87.7790144,54.8236222 87.205913,54.4400129 86.57,54.44 C86.3306094,54.4382523 86.0941909,54.493074 85.88,54.6 L85.7,54.68 L85.6,54.37 L85.71,54.28 C86.1244469,53.9865919 86.3676155,53.5077367 86.36,53 C86.3599999,52.132913 85.657087,51.4300001 84.79,51.4300001 C83.922913,51.4300001 83.2200001,52.132913 83.22,53 C83.2195918,53.515684 83.4789862,53.9968795 83.91,54.28 L84.05,54.38 L83.87,54.65 L83.73,54.65 C83.5158091,54.543074 83.2793906,54.4882523 83.04,54.49 C82.4054878,54.494393 81.836857,54.8826723 81.6017934,55.4720534 C81.3667298,56.0614346 81.5120752,56.7344699 81.9694076,57.1743246 C82.4267399,57.6141793 83.1049253,57.7332022 83.6847044,57.4753628 C84.2644835,57.2175233 84.6303222,56.6342019 84.61,56 L84.61,55.82 L84.79,55.74 Z" id="Shape"></path>
            <rect id="Rectangle-path" x="84.61" y="55.93" width="1" height="22.13"></rect>
            <polygon id="Shape" points="84.71 78.46 84.46 78.21 86.37 76.31 86.37 73.07 84.69 71.41 84.93 71.15 86.73 72.93 86.73 76.46 86.67 76.51"></polygon>
            <polygon id="Shape" points="88.17 78.25 86.38 76.47 86.38 72.94 88.19 71.15 88.44 71.41 86.74 73.09 86.74 76.33 88.42 78"></polygon>
            <polygon id="Shape" points="81.4 54.01 81.15 53.76 84.8 50.15 88.44 53.74 88.19 54 84.8 50.65"></polygon>
            <polygon id="Shape" points="81.15 78.46 80.9 78.21 82.81 76.31 82.81 73.07 81.13 71.41 81.38 71.15 83.17 72.93 83.17 76.46 83.12 76.51"></polygon>
            <polygon id="Shape" points="84.62 78.25 82.82 76.47 82.82 72.94 84.64 71.15 84.88 71.41 83.18 73.09 83.18 76.33 84.86 78"></polygon>
            <rect id="Rectangle-path" x="81.09" y="53.82" width="1" height="24.28"></rect>
            <path d="M79.5,57.87 C78.7491999,57.8761258 78.0644567,57.441803 77.75,56.76 C77.431621,57.4383593 76.7493566,57.8711099 76,57.87 C75.2864632,57.9217313 74.6038429,57.5703766 74.2312971,56.9596226 C73.8587513,56.3488687 73.8587513,55.5811313 74.2312971,54.9703774 C74.6038429,54.3596234 75.2864632,54.0082687 76,54.06 L76.17,54.06 C75.9402503,53.7394181 75.817745,53.3544016 75.82,52.96 C75.8928011,51.9505816 76.7329597,51.1688344 77.745,51.1688344 C78.7570403,51.1688344 79.5971989,51.9505816 79.67,52.96 C79.672255,53.3544016 79.5497497,53.7394181 79.32,54.06 L79.5,54.06 C80.2135368,54.0082687 80.8961571,54.3596234 81.2687029,54.9703774 C81.6412487,55.5811313 81.6412487,56.3488687 81.2687029,56.9596226 C80.8961571,57.5703766 80.2135368,57.9217313 79.5,57.87 Z M77.92,56 C77.9118879,56.640808 78.2916566,57.2230431 78.8813734,57.4739112 C79.4710902,57.7247792 80.1539304,57.5945825 80.6099635,57.144322 C81.0659966,56.6940615 81.204881,56.0129351 80.9615453,55.4200705 C80.7182096,54.8272059 80.1408593,54.4400513 79.5,54.44 C79.2604827,54.4370952 79.0237955,54.4919792 78.81,54.6 L78.65,54.67 L78.51,54.38 L78.63,54.28 C79.0582858,53.9943872 79.3168268,53.514775 79.32,53 C79.2545056,52.1787035 78.5689037,51.5455986 77.745,51.5455986 C76.9210963,51.5455986 76.2354944,52.1787035 76.17,53 C76.1731732,53.514775 76.4317142,53.9943872 76.86,54.28 L76.97,54.36 L76.87,54.68 L76.68,54.6 C76.4697597,54.4920469 76.2363188,54.4371196 76,54.44 C75.1397591,54.4455145 74.4463438,55.1463732 74.4500142,56.006624 C74.4536846,56.8668747 75.1530554,57.5617908 76.013312,57.5599644 C76.8735686,57.558138 77.5699823,56.8602586 77.57,56 L77.57,55.81 L77.75,55.81 L77.93,55.81 L77.93,55.99 L77.92,56 Z" id="Shape"></path>
            <rect id="Rectangle-path" x="77.57" y="55.93" width="1" height="22.13"></rect>
            <polygon id="Shape" points="77.66 78.46 77.42 78.2 79.33 76.31 79.33 73.07 77.64 71.41 77.89 71.15 79.68 72.93 79.68 76.46"></polygon>
            <polygon id="Shape" points="81.13 78.25 79.34 76.47 79.34 72.94 81.15 71.15 81.4 71.41 79.69 73.09 79.69 76.33 81.38 78"></polygon>
            <rect id="Rectangle-path" x="81.07" y="53.82" width="1" height="24.28"></rect>
            <polygon id="Shape" points="74.36 54.01 74.11 53.76 77.76 50.15 81.39 53.74 81.14 54 77.76 50.65"></polygon>
            <polygon id="Shape" points="74.31 78.25 74.06 78 75.77 76.31 75.77 73.07 74.08 71.41 74.33 71.15 76.13 72.93 76.13 76.46"></polygon>
            <polygon id="Shape" points="77.57 78.25 75.78 76.47 75.78 72.94 77.59 71.15 77.84 71.41 76.13 73.09 76.13 76.33 77.82 78"></polygon>
        </g>
    </g>
</svg>