<?xml version="1.0" encoding="UTF-8"?>
<svg width="637px" height="637px" viewBox="0 0 637 637" version="1.1" xmlns="http://www.w3.org/2000/svg" xmlns:xlink="http://www.w3.org/1999/xlink">
    <!-- Generator: Sketch 51.1 (57501) - http://www.bohemiancoding.com/sketch -->
    <title>LOGO (ML26)</title>
    <desc>Created with Sketch.</desc>
    <defs></defs>
    <g id="Page-1" stroke="none" stroke-width="1" fill="none" fill-rule="evenodd">
        <g id="LOGO-(ML26)">
            <rect id="Rectangle-path" stroke="#FFFFFF" stroke-width="1.39" x="0.7" y="0.7" width="635" height="635"></rect>
            <path d="M81.23,419.15 C81.23,417.67 81.13,417.23 80.23,417.15 L79.76,417.09 C79.59,416.98 79.57,416.64 79.76,416.56 C81.56,416.45 83.28,416.39 85.08,416.39 C86.6551864,416.320598 88.2300659,416.533969 89.73,417.02 C92.3870578,417.924109 94.1354078,420.465315 94.03,423.27 C94.0917992,425.904592 92.6539434,428.346234 90.32,429.57 C88.8431026,430.278765 87.2173442,430.621752 85.58,430.57 C84.23,430.57 82.87,430.4 82.13,430.4 C81.39,430.4 80.48,430.4 79.49,430.46 C79.36,430.4 79.32,430.06 79.49,429.93 L79.97,429.87 C81.2,429.7 81.24,429.45 81.24,427.22 L81.23,419.15 Z M83,426.71 C82.9008394,427.501596 83.0474638,428.30454 83.42,429.01 C83.89,429.67 84.69,429.88 86.02,429.88 C90.13,429.88 92.02,427.19 92.02,423.26 C92.02,420.93 90.9,416.99 85.35,416.99 C84.6395359,416.928057 83.9243546,417.030714 83.26,417.29 C83.09,417.42 83.05,417.95 83.05,418.9 L83,426.71 Z" id="Shape" fill="#FFFFFF" fill-rule="nonzero"></path>
            <path d="M101.3,423.53 C101.255179,421.524933 102.036129,419.589516 103.459941,418.177049 C104.883753,416.764582 106.825355,415.99914 108.83,416.06 C110.792415,415.960301 112.706375,416.689998 114.104334,418.070839 C115.502293,419.451681 116.255515,421.356506 116.18,423.32 C116.223799,425.28608 115.464825,427.185173 114.07803,428.579516 C112.691235,429.973858 110.796289,430.743128 108.83,430.71 C106.861986,430.820655 104.935969,430.111659 103.509416,428.751413 C102.082863,427.391167 101.283069,425.501049 101.3,423.53 Z M114.06,423.98 C114.06,420.49 112.51,416.72 108.47,416.72 C106.27,416.72 103.41,418.22 103.41,422.86 C103.41,425.99 104.94,430.05 109.11,430.05 C111.65,430.05 114.06,428.15 114.06,424 L114.06,423.98 Z" id="Shape" fill="#FFFFFF" fill-rule="nonzero"></path>
            <path d="M136.54,426.77 C136.54,427.41 136.54,429.92 136.6,430.47 C136.537232,430.632054 136.372527,430.730878 136.2,430.71 C135.95,430.35 135.33,429.61 133.49,427.51 L128.58,421.92 C128.01,421.27 126.58,419.53 126.13,419.07 C126.040873,419.520873 126.007289,419.980963 126.03,420.44 L126.03,425.06 C125.971825,426.530174 126.099502,428.001811 126.41,429.44 C126.698687,429.717758 127.090032,429.862701 127.49,429.84 L128.14,429.9 C128.283532,430.047514 128.283532,430.282486 128.14,430.43 C127.14,430.43 126.45,430.37 125.67,430.37 C124.89,430.37 124.21,430.37 123.46,430.43 C123.330466,430.277077 123.330466,430.052923 123.46,429.9 L124.03,429.84 C124.52,429.84 124.86,429.65 124.96,429.42 C125.210377,427.981027 125.304257,426.519179 125.24,425.06 L125.24,418.94 C125.311856,418.389091 125.140277,417.834197 124.77,417.42 C124.400108,417.112583 123.940383,416.933606 123.46,416.91 L123.1,416.91 C122.98,416.78 122.98,416.46 123.1,416.38 C123.99,416.44 125.1,416.44 125.5,416.44 C125.834312,416.44286 126.168428,416.422813 126.5,416.38 C126.92,417.46 129.44,420.25 130.12,421.03 L132.17,423.34 C133.61,424.99 134.67,426.16 135.66,427.17 L135.71,427.17 C135.796441,426.881769 135.823654,426.579026 135.79,426.28 L135.79,421.75 C135.79,420.75 135.79,418.01 135.37,417.37 C135.24,417.18 134.9,417.06 134.05,416.95 L133.69,416.95 C133.55,416.82 133.57,416.48 133.74,416.42 C134.74,416.42 135.43,416.48 136.23,416.48 C137.03,416.48 137.69,416.48 138.41,416.42 C138.568306,416.553525 138.590542,416.789225 138.46,416.95 L138.16,416.95 C137.48,417.06 137.06,417.22 136.97,417.39 C136.685691,418.824778 136.581553,420.28943 136.66,421.75 L136.54,426.77 Z" id="Shape" fill="#FFFFFF" fill-rule="nonzero"></path>
            <path d="M147,419.15 C147,417.67 146.89,417.23 146,417.15 L145.54,417.09 C145.37,416.98 145.35,416.64 145.54,416.56 C147.34,416.45 149.05,416.39 150.85,416.39 C152.425226,416.31973 154.000259,416.533121 155.5,417.02 C158.157058,417.924109 159.905408,420.465315 159.8,423.27 C159.861352,425.901782 158.428378,428.341711 156.1,429.57 C154.622723,430.277648 152.99724,430.620577 151.36,430.57 C150,430.57 148.65,430.4 147.91,430.4 C147.17,430.4 146.26,430.4 145.26,430.46 C145.13446,430.305636 145.13446,430.084364 145.26,429.93 L145.75,429.87 C146.97,429.7 147.02,429.45 147.02,427.22 L147,419.15 Z M148.73,426.71 C148.637814,427.501386 148.784062,428.302272 149.15,429.01 C149.62,429.67 150.42,429.88 151.76,429.88 C155.86,429.88 157.7,427.19 157.7,423.26 C157.7,420.93 156.58,416.99 151.04,416.99 C150.326245,416.927225 149.607628,417.029884 148.94,417.29 C148.77,417.42 148.73,417.95 148.73,418.9 L148.73,426.71 Z" id="Shape" fill="#FFFFFF" fill-rule="nonzero"></path>
            <path d="M168.82,419.58 C168.82,417.38 168.82,417.06 167.53,416.91 L167.19,416.91 C167.060466,416.757077 167.060466,416.532923 167.19,416.38 C168.1,416.38 168.82,416.44 169.69,416.44 L173.69,416.44 C175.04,416.44 176.29,416.44 176.54,416.38 C176.713153,417.308456 176.826718,418.24704 176.88,419.19 C176.737803,419.330798 176.516019,419.351721 176.35,419.24 C176.03,418.24 175.84,417.5 174.74,417.24 C174.078598,417.137121 173.408958,417.096942 172.74,417.12 L171.22,417.12 C170.58,417.12 170.58,417.12 170.58,417.96 L170.58,422.2 C170.58,422.79 170.65,422.79 171.28,422.79 L172.51,422.79 C173.113042,422.818983 173.717381,422.775337 174.31,422.66 C174.56,422.58 174.71,422.45 174.81,421.92 L175,421 C175.11,420.88 175.47,420.88 175.55,421 C175.55,421.5 175.47,422.33 175.47,423.13 C175.47,423.93 175.55,424.7 175.55,425.13 C175.47,425.28 175.11,425.28 175,425.13 L174.81,424.3 C174.785522,423.922234 174.524756,423.601291 174.16,423.5 C173.623112,423.397572 173.075782,423.360636 172.53,423.39 L171.3,423.39 C170.67,423.39 170.6,423.39 170.6,423.96 L170.6,426.96 C170.490675,427.717317 170.631096,428.489634 171,429.16 C171.26,429.41 171.7,429.64 173.56,429.64 C174.475137,429.736791 175.400361,429.630953 176.27,429.33 C176.929967,428.773163 177.44762,428.066961 177.78,427.27 C177.968437,427.171023 178.201381,427.236951 178.31,427.42 C178.061507,428.426838 177.726942,429.410457 177.31,430.36 C175.41,430.32 173.52,430.3 171.64,430.3 L169.74,430.3 C168.83,430.3 168.11,430.3 166.86,430.36 C166.73,430.3 166.69,429.96 166.86,429.83 L167.55,429.77 C168.76,429.66 168.87,429.35 168.87,427.12 L168.82,419.58 Z" id="Shape" fill="#FFFFFF" fill-rule="nonzero"></path>
            <path d="M197.28,424.72 C197.77,425.72 198.28,426.72 198.74,427.62 C199.31,426.62 199.84,425.52 200.37,424.44 L202.37,420.44 C203.37,418.52 203.93,417.35 203.97,416.38 C204.69,416.44 205.14,416.44 205.56,416.44 C205.98,416.44 206.79,416.44 207.44,416.38 C207.555072,416.537929 207.555072,416.752071 207.44,416.91 L206.99,416.91 C205.66,417.06 205.49,417.44 205.51,418.91 C205.51,421.15 205.57,425.07 205.74,428.12 C205.81,429.17 205.74,429.72 206.74,429.83 L207.42,429.89 C207.540382,430.053719 207.518876,430.281683 207.37,430.42 C206.51,430.42 205.64,430.36 204.88,430.36 C204.12,430.36 203.18,430.36 202.32,430.42 C202.171124,430.281683 202.149618,430.053719 202.27,429.89 L202.89,429.83 C203.89,429.72 203.89,429.39 203.89,428.03 L203.83,419.21 C203.68,419.44 202.83,421.13 202.45,421.96 L200.57,425.66 C199.62,427.52 198.67,429.51 198.28,430.49 C198.22758,430.549816 198.148932,430.579777 198.07,430.57 C197.998349,430.570654 197.929604,430.541709 197.88,430.49 C197.331457,429.046385 196.710673,427.631265 196.02,426.25 L194.12,422.17 C193.67,421.17 193.23,420.1 192.76,419.12 C192.67,420.43 192.61,421.66 192.55,422.89 C192.49,424.12 192.4,426.06 192.4,427.89 C192.4,429.46 192.53,429.8 193.35,429.89 L194.16,429.95 C194.3,430.08 194.28,430.42 194.16,430.48 C193.44,430.48 192.62,430.42 191.82,430.42 C191.02,430.42 190.38,430.42 189.66,430.48 C189.519202,430.337803 189.498279,430.116019 189.61,429.95 L190.08,429.89 C190.97,429.78 191.26,429.64 191.39,428.15 C191.52,426.66 191.62,425.59 191.75,423.5 C191.86,421.74 191.94,419.94 191.98,418.78 C192.03,417.45 191.86,417.17 190.57,416.96 L190.23,416.96 C190.111806,416.790094 190.146922,416.55745 190.31,416.43 C190.95,416.43 191.46,416.49 191.98,416.49 C192.5,416.49 193.04,416.49 193.74,416.43 C193.840121,417.66114 194.21608,418.853954 194.84,419.92 L197.28,424.72 Z" id="Shape" fill="#FFFFFF" fill-rule="nonzero"></path>
            <path d="M222.26,425.46 C222.11,424.99 222.03,424.93 221.39,424.93 L218.2,424.93 C217.67,424.93 217.54,424.99 217.39,425.44 L216.65,427.66 C216.427302,428.226312 216.27288,428.817144 216.19,429.42 C216.19,429.67 216.29,429.8 216.8,429.84 L217.5,429.9 C217.578606,429.96985 217.619216,430.072981 217.609339,430.177674 C217.599463,430.282366 217.540282,430.376083 217.45,430.43 C216.9,430.43 216.25,430.43 215.25,430.37 C214.56,430.37 213.79,430.37 213.25,430.43 C213.12446,430.275636 213.12446,430.054364 213.25,429.9 L213.95,429.84 C214.542447,429.809408 215.051293,429.408742 215.22,428.84 C215.6,427.84 216.22,426.49 217.08,424.12 L219.24,418.41 C219.488696,417.949927 219.612799,417.432832 219.6,416.91 C220.039358,416.755964 220.422495,416.473836 220.7,416.1 C220.836315,416.088419 220.964914,416.164775 221.02,416.29 C221.29,417.22 221.63,418.2 221.95,419.13 L224.85,427.64 C225.46,429.46 225.74,429.77 226.65,429.88 L227.22,429.94 C227.34554,430.094364 227.34554,430.315636 227.22,430.47 C226.35,430.47 225.61,430.41 224.66,430.41 C223.71,430.41 222.84,430.41 222.22,430.47 C222.14294,430.403514 222.098637,430.306777 222.098637,430.205 C222.098637,430.103223 222.14294,430.006486 222.22,429.94 L222.83,429.88 C223.28,429.88 223.57,429.71 223.57,429.5 C223.532,429.116015 223.441141,428.73912 223.3,428.38 L222.26,425.46 Z M218.07,423.58 C217.9,424.06 217.92,424.08 218.51,424.08 L221.12,424.08 C221.73,424.08 221.77,424 221.58,423.43 L220.44,420 C220.299848,419.545194 220.136297,419.097932 219.95,418.66 C219.89,418.77 219.67,419.28 219.44,419.91 L218.07,423.58 Z" id="Shape" fill="#FFFFFF" fill-rule="nonzero"></path>
            <path d="M234.83,419.15 C234.83,417.67 234.73,417.23 233.83,417.15 L233.36,417.09 C233.19,416.98 233.17,416.64 233.36,416.56 C235.16,416.45 236.88,416.39 238.67,416.39 C240.248501,416.31983 241.826797,416.533205 243.33,417.02 C245.987058,417.924109 247.735408,420.465315 247.63,423.27 C247.691799,425.904592 246.253943,428.346234 243.92,429.57 C242.443103,430.278765 240.817344,430.621752 239.18,430.57 C237.83,430.57 236.47,430.4 235.73,430.4 C234.99,430.4 234.08,430.4 233.09,430.46 C232.96,430.4 232.92,430.06 233.09,429.93 L233.57,429.87 C234.8,429.7 234.84,429.45 234.84,427.22 L234.83,419.15 Z M236.57,426.71 C236.475987,427.499338 236.626054,428.298532 237,429 C237.47,429.66 238.27,429.87 239.6,429.87 C243.71,429.87 245.55,427.18 245.55,423.25 C245.55,420.92 244.43,416.98 238.88,416.98 C238.169536,416.918057 237.454355,417.020714 236.79,417.28 C236.62,417.41 236.58,417.94 236.58,418.89 L236.57,426.71 Z" id="Shape" fill="#FFFFFF" fill-rule="nonzero"></path>
            <path d="M256.63,419.6 C256.63,417.6 256.57,417.23 255.7,417.12 L255,417 C254.925861,416.931829 254.88367,416.835717 254.88367,416.735 C254.88367,416.634283 254.925861,416.538171 255,416.47 C256.18,416.36 257.64,416.3 259.71,416.3 C260.923672,416.219046 262.138776,416.435293 263.25,416.93 C264.381874,417.490141 265.073292,418.668694 265.01,419.93 C264.938793,421.540434 263.886549,422.942103 262.36,423.46 C262.25,423.59 262.36,423.8 262.47,423.97 C264.16,426.7 265.28,428.39 266.72,429.6 C267.132942,429.944591 267.643587,430.150948 268.18,430.19 C268.230276,430.223349 268.260501,430.279669 268.260501,430.34 C268.260501,430.400331 268.230276,430.456651 268.18,430.49 C267.875934,430.565153 267.563092,430.598792 267.25,430.59 C265.45,430.59 264.37,430.06 262.87,427.92 C262.32,427.14 261.45,425.68 260.8,424.73 C260.475169,424.224969 259.883465,423.958506 259.29,424.05 C258.34,424.05 258.29,424.05 258.29,424.52 L258.29,427.18 C258.29,429.41 258.29,429.66 259.56,429.83 L260,429.89 C260.129534,430.042923 260.129534,430.267077 260,430.42 C259,430.42 258.33,430.36 257.48,430.36 C256.63,430.36 255.83,430.36 254.84,430.42 C254.71,430.36 254.67,430.04 254.84,429.89 L255.37,429.83 C256.6,429.68 256.64,429.41 256.64,427.18 L256.63,419.6 Z M258.37,422.6 C258.342752,422.834994 258.363158,423.07307 258.43,423.3 C258.5,423.37 258.81,423.41 259.89,423.41 C260.656875,423.465524 261.42125,423.272677 262.07,422.86 C262.832708,422.20982 263.228682,421.227356 263.13,420.23 C263.173931,419.329502 262.826182,418.454023 262.176338,417.8291 C261.526494,417.204176 260.638093,416.890909 259.74,416.97 C258.43,416.97 258.37,417.06 258.37,417.65 L258.37,422.6 Z" id="Shape" fill="#FFFFFF" fill-rule="nonzero"></path>
            <path d="M275.58,419.62 C275.58,417.38 275.53,417.02 274.29,416.91 L273.76,416.91 C273.630466,416.757077 273.630466,416.532923 273.76,416.38 C274.82,416.38 275.54,416.44 276.43,416.44 C277.32,416.44 277.99,416.44 279.05,416.38 C279.179534,416.532923 279.179534,416.757077 279.05,416.91 L278.52,416.91 C277.27,417.02 277.23,417.38 277.23,419.62 L277.23,427.15 C277.23,429.4 277.23,429.69 278.52,429.84 L279.05,429.9 C279.179534,430.052923 279.179534,430.277077 279.05,430.43 C277.99,430.43 277.27,430.37 276.43,430.37 C275.59,430.37 274.82,430.37 273.76,430.43 C273.63,430.37 273.59,430.03 273.76,429.9 L274.29,429.84 C275.53,429.69 275.58,429.4 275.58,427.15 L275.58,419.62 Z" id="Shape" fill="#FFFFFF" fill-rule="nonzero"></path>
            <path d="M288,419.15 C288,417.67 287.9,417.23 287,417.15 L286.53,417.09 C286.36,416.98 286.34,416.64 286.53,416.56 C288.33,416.45 290.05,416.39 291.84,416.39 C293.418462,416.320694 294.996605,416.534048 296.5,417.02 C299.157058,417.924109 300.905408,420.465315 300.8,423.27 C300.861799,425.904592 299.423943,428.346234 297.09,429.57 C295.613103,430.278765 293.987344,430.621752 292.35,430.57 C291,430.57 289.64,430.4 288.9,430.4 C288.16,430.4 287.25,430.4 286.26,430.46 C286.13,430.4 286.09,430.06 286.26,429.93 L286.74,429.87 C287.97,429.7 288.01,429.45 288.01,427.22 L288,419.15 Z M289.74,426.71 C289.640839,427.501596 289.787464,428.30454 290.16,429.01 C290.63,429.67 291.43,429.88 292.76,429.88 C296.87,429.88 298.76,427.19 298.76,423.26 C298.76,420.93 297.64,416.99 292.09,416.99 C291.379536,416.928057 290.664355,417.030714 290,417.29 C289.83,417.42 289.79,417.95 289.79,418.9 L289.74,426.71 Z" id="Shape" fill="#FFFFFF" fill-rule="nonzero"></path>
            <path d="M320.64,424.72 C321.12,425.72 321.59,426.72 322.1,427.62 C322.67,426.62 323.2,425.52 323.73,424.44 L325.73,420.44 C326.73,418.52 327.29,417.35 327.34,416.38 C328.06,416.44 328.5,416.44 328.92,416.44 C329.34,416.44 330.15,416.44 330.81,416.38 C330.919108,416.539821 330.919108,416.750179 330.81,416.91 L330.36,416.91 C329.03,417.06 328.86,417.44 328.88,418.91 C328.88,421.15 328.95,425.07 329.12,428.12 C329.18,429.17 329.12,429.72 330.12,429.83 L330.8,429.89 C330.938483,430.039529 330.938483,430.270471 330.8,430.42 C329.93,430.42 329.06,430.36 328.3,430.36 C327.54,430.36 326.61,430.36 325.74,430.42 C325.601517,430.270471 325.601517,430.039529 325.74,429.89 L326.35,429.83 C327.35,429.72 327.35,429.39 327.35,428.03 L327.28,419.21 C327.13,419.44 326.33,421.13 325.91,421.96 L324.02,425.66 C323.07,427.52 322.12,429.51 321.74,430.49 C321.685734,430.547103 321.608505,430.576523 321.53,430.57 C321.455535,430.57 321.383923,430.541355 321.33,430.49 C320.785691,429.044657 320.164812,427.62932 319.47,426.25 L317.57,422.17 C317.12,421.17 316.68,420.1 316.21,419.12 C316.13,420.43 316.06,421.66 316,422.89 C315.94,424.12 315.85,426.06 315.85,427.89 C315.85,429.46 315.98,429.8 316.8,429.89 L317.61,429.95 C317.76,430.08 317.74,430.42 317.61,430.48 C316.89,430.48 316.06,430.42 315.26,430.42 C314.46,430.42 313.82,430.42 313.1,430.48 C312.970466,430.327077 312.970466,430.102923 313.1,429.95 L313.56,429.89 C314.45,429.78 314.75,429.64 314.87,428.15 C314.99,426.66 315.11,425.59 315.23,423.5 C315.34,421.74 315.42,419.94 315.47,418.78 C315.47,417.45 315.34,417.17 314.05,416.96 L313.71,416.96 C313.594,416.787571 313.633583,416.554471 313.8,416.43 C314.43,416.43 314.94,416.49 315.47,416.49 C316,416.49 316.53,416.49 317.22,416.43 C317.320121,417.66114 317.69608,418.853954 318.32,419.92 L320.64,424.72 Z" id="Shape" fill="#FFFFFF" fill-rule="nonzero"></path>
            <path d="M339.71,419.62 C339.71,417.38 339.71,417.02 338.42,416.91 L337.89,416.91 C337.760466,416.757077 337.760466,416.532923 337.89,416.38 C338.95,416.38 339.67,416.44 340.56,416.44 C341.45,416.44 342.12,416.44 343.18,416.38 C343.309534,416.532923 343.309534,416.757077 343.18,416.91 L342.65,416.91 C341.41,417.02 341.36,417.38 341.36,419.62 L341.36,427.15 C341.36,429.4 341.41,429.69 342.65,429.84 L343.18,429.9 C343.309534,430.052923 343.309534,430.277077 343.18,430.43 C342.12,430.43 341.4,430.37 340.56,430.37 C339.72,430.37 338.95,430.37 337.89,430.43 C337.76,430.37 337.72,430.03 337.89,429.9 L338.42,429.84 C339.67,429.69 339.71,429.4 339.71,427.15 L339.71,419.62 Z" id="Shape" fill="#FFFFFF" fill-rule="nonzero"></path>
            <path d="M352.15,419.6 C352.15,417.6 352.09,417.23 351.22,417.12 L350.55,417.04 C350.47294,416.973514 350.428637,416.876777 350.428637,416.775 C350.428637,416.673223 350.47294,416.576486 350.55,416.51 C351.73,416.4 353.19,416.34 355.27,416.34 C356.480387,416.259878 357.692054,416.476125 358.8,416.97 C359.935621,417.52611 360.628639,418.70739 360.56,419.97 C360.488793,421.580434 359.436549,422.982103 357.91,423.5 C357.81,423.63 357.91,423.84 358.02,424.01 C359.71,426.74 360.83,428.43 362.27,429.64 C362.682942,429.984591 363.193587,430.190948 363.73,430.23 C363.780276,430.263349 363.810501,430.319669 363.810501,430.38 C363.810501,430.440331 363.780276,430.496651 363.73,430.53 C363.425934,430.605153 363.113092,430.638792 362.8,430.63 C361,430.63 359.92,430.1 358.42,427.96 C357.87,427.18 357,425.72 356.35,424.77 C356.025169,424.264969 355.433465,423.998506 354.84,424.09 C353.89,424.09 353.84,424.09 353.84,424.56 L353.84,427.22 C353.84,429.45 353.84,429.7 355.11,429.87 L355.55,429.93 C355.679534,430.082923 355.679534,430.307077 355.55,430.46 C354.6,430.46 353.88,430.4 353.03,430.4 C352.18,430.4 351.38,430.4 350.39,430.46 C350.26,430.4 350.22,430.08 350.39,429.93 L350.92,429.87 C352.15,429.72 352.19,429.45 352.19,427.22 L352.15,419.6 Z M353.89,422.6 C353.862752,422.834994 353.883158,423.07307 353.95,423.3 C354.02,423.37 354.33,423.41 355.41,423.41 C356.176875,423.465524 356.94125,423.272677 357.59,422.86 C358.352708,422.20982 358.748682,421.227356 358.65,420.23 C358.693931,419.329502 358.346182,418.454023 357.696338,417.8291 C357.046494,417.204176 356.158093,416.890909 355.26,416.97 C353.95,416.97 353.89,417.06 353.89,417.65 L353.89,422.6 Z" id="Shape" fill="#FFFFFF" fill-rule="nonzero"></path>
            <path d="M377,425.46 C376.85,424.99 376.77,424.93 376.13,424.93 L372.94,424.93 C372.41,424.93 372.28,424.99 372.13,425.44 L371.39,427.66 C371.172491,428.227991 371.018227,428.818219 370.93,429.42 C370.93,429.67 371.03,429.8 371.54,429.84 L372.24,429.9 C372.320286,429.964536 372.366986,430.061991 372.366986,430.165 C372.366986,430.268009 372.320286,430.365464 372.24,430.43 C371.69,430.43 371.03,430.43 370.04,430.37 C369.34,430.37 368.58,430.37 368.04,430.43 C367.921664,430.27315 367.921664,430.05685 368.04,429.9 L368.74,429.84 C369.332447,429.809408 369.841293,429.408742 370.01,428.84 C370.39,427.84 371.01,426.49 371.87,424.12 L374.03,418.41 C374.278696,417.949927 374.402799,417.432832 374.39,416.91 C374.829358,416.755964 375.212495,416.473836 375.49,416.1 C375.627047,416.085141 375.757442,416.162563 375.81,416.29 C376.08,417.22 376.42,418.2 376.74,419.13 L379.64,427.64 C380.25,429.46 380.53,429.77 381.44,429.88 L382.01,429.94 C382.139534,430.092923 382.139534,430.317077 382.01,430.47 C381.14,430.47 380.4,430.41 379.45,430.41 C378.5,430.41 377.63,430.41 377.01,430.47 C376.935861,430.401829 376.89367,430.305717 376.89367,430.205 C376.89367,430.104283 376.935861,430.008171 377.01,429.94 L377.63,429.88 C378.07,429.88 378.37,429.71 378.37,429.5 C378.327315,429.115799 378.233137,428.739087 378.09,428.38 L377,425.46 Z M372.81,423.58 C372.64,424.06 372.66,424.08 373.25,424.08 L375.86,424.08 C376.47,424.08 376.51,424 376.32,423.43 L375.18,420 C375.039848,419.545194 374.876297,419.097932 374.69,418.66 C374.63,418.77 374.42,419.28 374.18,419.91 L372.81,423.58 Z" id="Shape" fill="#FFFFFF" fill-rule="nonzero"></path>
            <path d="M400.77,425.46 C400.62,424.99 400.54,424.93 399.9,424.93 L396.71,424.93 C396.18,424.93 396.05,424.99 395.9,425.44 L395.16,427.66 C394.937302,428.226312 394.78288,428.817144 394.7,429.42 C394.7,429.67 394.8,429.8 395.31,429.84 L396.01,429.9 C396.090286,429.964536 396.136986,430.061991 396.136986,430.165 C396.136986,430.268009 396.090286,430.365464 396.01,430.43 C395.46,430.43 394.8,430.43 393.8,430.37 C393.11,430.37 392.34,430.37 391.8,430.43 C391.67446,430.275636 391.67446,430.054364 391.8,429.9 L392.5,429.84 C393.092447,429.809408 393.601293,429.408742 393.77,428.84 C394.15,427.84 394.77,426.49 395.63,424.12 L397.79,418.41 C398.038696,417.949927 398.162799,417.432832 398.15,416.91 C398.589358,416.755964 398.972495,416.473836 399.25,416.1 C399.387047,416.085141 399.517442,416.162563 399.57,416.29 C399.84,417.22 400.18,418.2 400.5,419.13 L403.4,427.64 C404.01,429.46 404.29,429.77 405.2,429.88 L405.77,429.94 C405.89554,430.094364 405.89554,430.315636 405.77,430.47 C404.9,430.47 404.16,430.41 403.21,430.41 C402.26,430.41 401.39,430.41 400.77,430.47 C400.69294,430.403514 400.648637,430.306777 400.648637,430.205 C400.648637,430.103223 400.69294,430.006486 400.77,429.94 L401.39,429.88 C401.83,429.88 402.13,429.71 402.13,429.5 C402.087315,429.115799 401.993137,428.739087 401.85,428.38 L400.77,425.46 Z M396.58,423.58 C396.41,424.06 396.43,424.08 397.02,424.08 L399.63,424.08 C400.24,424.08 400.28,424 400.09,423.43 L399,420 C398.859848,419.545194 398.696297,419.097932 398.51,418.66 C398.45,418.77 398.24,419.28 398,419.91 L396.58,423.58 Z" id="Shape" fill="#FFFFFF" fill-rule="nonzero"></path>
            <path d="M413.34,419.58 C413.34,417.35 413.34,417.02 411.97,416.91 L411.44,416.91 C411.310466,416.757077 411.310466,416.532923 411.44,416.38 C412.63,416.38 413.35,416.44 414.19,416.44 C415.03,416.44 415.74,416.44 416.79,416.38 C416.930798,416.522197 416.951721,416.743981 416.84,416.91 L416.33,416.91 C415.08,417.02 415.04,417.35 415.04,419.58 L415.04,426.94 C415.04,428.27 415.1,428.82 415.48,429.23 C415.72,429.46 416.12,429.71 417.79,429.71 C419.46,429.71 420.03,429.63 420.37,429.44 C421.024542,428.885297 421.509713,428.15754 421.77,427.34 C421.89,427.24 422.3,427.34 422.3,427.47 C422.093152,428.49448 421.795304,429.498461 421.41,430.47 C420.33,430.47 418.32,430.41 416.14,430.41 L414.19,430.41 C413.3,430.41 412.63,430.41 411.44,430.47 C411.31,430.41 411.27,430.07 411.44,429.94 L412.07,429.88 C413.3,429.75 413.34,429.46 413.34,427.23 L413.34,419.58 Z" id="Shape" fill="#FFFFFF" fill-rule="nonzero"></path>
            <path d="M437.37,422.37 C437.37,422.94 437.43,422.94 438.06,422.94 L439.5,422.94 C440.103036,422.968502 440.707318,422.924859 441.3,422.81 C441.54,422.73 441.7,422.62 441.83,422.07 L442.02,421.23 C442.180746,421.1013 442.409254,421.1013 442.57,421.23 C442.57,421.73 442.49,422.58 442.49,423.36 C442.49,424.14 442.57,424.93 442.57,425.42 C442.49,425.54 442.17,425.54 442.02,425.42 L441.81,424.59 C441.752817,424.216216 441.489689,423.906654 441.13,423.79 C440.593112,423.687572 440.045782,423.650636 439.5,423.68 L438.06,423.68 C437.43,423.68 437.37,423.68 437.37,424.25 L437.37,427.19 C437.37,429.42 437.37,429.73 438.66,429.84 L439.38,429.9 C439.491721,430.066019 439.470798,430.287803 439.33,430.43 C438.09,430.43 437.33,430.37 436.52,430.37 C435.71,430.37 434.87,430.37 433.87,430.43 C433.74446,430.275636 433.74446,430.054364 433.87,429.9 L434.4,429.84 C435.63,429.69 435.67,429.42 435.67,427.19 L435.67,419.58 C435.67,417.35 435.67,417.06 434.4,416.91 L434.06,416.91 C433.93,416.82 433.98,416.44 434.06,416.38 C434.95,416.38 435.67,416.44 436.52,416.44 L440.41,416.44 C441.77,416.44 442.99,416.44 443.27,416.38 C443.27,417.38 443.27,418.38 443.33,419.17 C443.205161,419.316681 442.990321,419.346758 442.83,419.24 C442.66,418.24 442.4,417.52 441.34,417.24 C440.678372,417.139242 440.008929,417.099075 439.34,417.12 L438,417.12 C437.37,417.12 437.37,417.12 437.37,417.96 L437.37,422.37 Z" id="Shape" fill="#FFFFFF" fill-rule="nonzero"></path>
            <path d="M462.4,421.71 C462.4,420.4 462.4,417.97 462,417.33 C461.73225,417.029365 461.341943,416.867351 460.94,416.89 L460.41,416.89 C460.283446,416.743553 460.283446,416.526447 460.41,416.38 C461.21,416.38 461.99,416.44 462.82,416.44 C463.65,416.44 464.28,416.44 465.04,416.38 C465.107784,416.447549 465.145884,416.539305 465.145884,416.635 C465.145884,416.730695 465.107784,416.822451 465.04,416.89 L464.54,416.89 C464.01,416.89 463.54,417.12 463.48,417.4 C463.203071,418.818854 463.10231,420.266462 463.18,421.71 L463.18,424.1 C463.325536,425.911261 462.798648,427.71265 461.7,429.16 C460.627691,430.19094 459.186993,430.749211 457.7,430.71 C456.269699,430.81047 454.850705,430.395414 453.7,429.54 C452.58,428.61 452.05,427.07 452.05,424.54 L452.05,419.54 C452.05,417.34 452.05,416.98 450.78,416.88 L450.25,416.88 C450.12,416.79 450.17,416.43 450.25,416.37 C451.31,416.37 452.03,416.43 452.88,416.43 C453.73,416.43 454.44,416.43 455.48,416.37 C455.611019,416.514756 455.611019,416.735244 455.48,416.88 L454.97,416.88 C453.75,416.98 453.7,417.34 453.7,419.54 L453.7,424.12 C453.7,427.52 454.76,429.77 458,429.77 C461.07,429.77 462.23,427.35 462.23,424.14 L462.4,421.71 Z" id="Shape" fill="#FFFFFF" fill-rule="nonzero"></path>
            <path d="M477.52,427.19 C477.52,429.42 477.52,429.71 478.79,429.84 L479.46,429.9 C479.589534,430.052923 479.589534,430.277077 479.46,430.43 C478.26,430.43 477.54,430.37 476.69,430.37 C475.84,430.37 475.1,430.37 473.75,430.43 C473.678526,430.360356 473.638215,430.264794 473.638215,430.165 C473.638215,430.065206 473.678526,429.969644 473.75,429.9 L474.51,429.84 C475.72,429.73 475.82,429.42 475.82,427.19 L475.82,417.73 C475.82,417.08 475.82,417.06 475.19,417.06 L474,417.06 C473.099132,416.958159 472.189124,417.143661 471.4,417.59 C470.973128,417.995356 470.647683,418.495514 470.45,419.05 C470.256213,419.156493 470.012889,419.090132 469.9,418.9 C470.24252,417.870736 470.509889,416.817971 470.7,415.75 C470.77,415.7 471.04,415.68 471.1,415.75 C471.23,416.42 471.93,416.4 472.9,416.4 L481.47,416.4 C482.62,416.4 482.81,416.4 483.12,415.81 C483.23,415.81 483.46,415.81 483.51,415.87 C483.261067,416.924403 483.153457,418.007227 483.19,419.09 C483.037874,419.241278 482.792126,419.241278 482.64,419.09 C482.57,418.56 482.43,417.78 482.11,417.55 C481.362754,417.127865 480.504779,416.943017 479.65,417.02 L478.15,417.02 C477.52,417.02 477.54,417.02 477.54,417.74 L477.52,427.19 Z" id="Shape" fill="#FFFFFF" fill-rule="nonzero"></path>
            <path d="M501.79,421.71 C501.79,420.4 501.79,417.97 501.39,417.33 C501.12225,417.029365 500.731943,416.867351 500.33,416.89 L499.81,416.89 C499.678981,416.745244 499.678981,416.524756 499.81,416.38 C500.61,416.38 501.39,416.44 502.22,416.44 C503.05,416.44 503.68,416.44 504.44,416.38 C504.507784,416.447549 504.545884,416.539305 504.545884,416.635 C504.545884,416.730695 504.507784,416.822451 504.44,416.89 L503.94,416.89 C503.41,416.89 502.94,417.12 502.88,417.4 C502.603071,418.818854 502.50231,420.266462 502.58,421.71 L502.58,424.1 C502.58,425.95 502.29,427.89 501.1,429.16 C500.027691,430.19094 498.586993,430.749211 497.1,430.71 C495.669699,430.81047 494.250705,430.395414 493.1,429.54 C491.98,428.61 491.45,427.07 491.45,424.54 L491.45,419.54 C491.45,417.34 491.45,416.98 490.18,416.88 L489.65,416.88 C489.52,416.79 489.57,416.43 489.65,416.37 C490.71,416.37 491.43,416.43 492.28,416.43 C493.13,416.43 493.84,416.43 494.88,416.37 C495.011019,416.514756 495.011019,416.735244 494.88,416.88 L494.38,416.88 C493.15,416.98 493.11,417.34 493.11,419.54 L493.11,424.12 C493.11,427.52 494.16,429.77 497.4,429.77 C500.47,429.77 501.63,427.35 501.63,424.14 L501.79,421.71 Z" id="Shape" fill="#FFFFFF" fill-rule="nonzero"></path>
            <path d="M512.78,419.6 C512.78,417.6 512.72,417.23 511.85,417.12 L511.17,417.04 C511.09294,416.973514 511.048637,416.876777 511.048637,416.775 C511.048637,416.673223 511.09294,416.576486 511.17,416.51 C512.36,416.4 513.82,416.34 515.89,416.34 C517.103561,416.261057 518.318187,416.477219 519.43,416.97 C520.559847,417.531055 521.247763,418.710339 521.18,419.97 C521.113113,421.578838 520.064349,422.981162 518.54,423.5 C518.43,423.63 518.54,423.84 518.64,424.01 C520.34,426.74 521.46,428.43 522.9,429.64 C523.312942,429.984591 523.823587,430.190948 524.36,430.23 C524.406299,430.265996 524.433381,430.321355 524.433381,430.38 C524.433381,430.438645 524.406299,430.494004 524.36,430.53 C524.055934,430.605153 523.743092,430.638792 523.43,430.63 C521.63,430.63 520.55,430.1 519.05,427.96 C518.5,427.18 517.63,425.72 516.97,424.77 C516.652087,424.262489 516.06122,423.994629 515.47,424.09 C514.47,424.09 514.47,424.09 514.47,424.56 L514.47,427.22 C514.47,429.45 514.47,429.7 515.74,429.87 L516.18,429.93 C516.30554,430.084364 516.30554,430.305636 516.18,430.46 C515.18,430.46 514.51,430.4 513.66,430.4 C512.81,430.4 512.01,430.4 511.01,430.46 C510.880466,430.307077 510.880466,430.082923 511.01,429.93 L511.54,429.87 C512.77,429.72 512.81,429.45 512.81,427.22 L512.78,419.6 Z M514.52,422.6 C514.492752,422.834994 514.513158,423.07307 514.58,423.3 C514.64,423.37 514.96,423.41 516.04,423.41 C516.806875,423.465524 517.57125,423.272677 518.22,422.86 C518.982708,422.20982 519.378682,421.227356 519.28,420.23 C519.323931,419.329502 518.976182,418.454023 518.326338,417.8291 C517.676494,417.204176 516.788093,416.890909 515.89,416.97 C514.58,416.97 514.52,417.06 514.52,417.65 L514.52,422.6 Z" id="Shape" fill="#FFFFFF" fill-rule="nonzero"></path>
            <path d="M530,423.53 C529.955179,421.524933 530.736129,419.589516 532.159941,418.177049 C533.583753,416.764582 535.525355,415.99914 537.53,416.06 C539.492415,415.960301 541.406375,416.689998 542.804334,418.070839 C544.202293,419.451681 544.955515,421.356506 544.88,423.32 C544.923799,425.28608 544.164825,427.185173 542.77803,428.579516 C541.391235,429.973858 539.496289,430.743128 537.53,430.71 C535.561986,430.820655 533.635969,430.111659 532.209416,428.751413 C530.782863,427.391167 529.983069,425.501049 530,423.53 Z M542.76,423.98 C542.76,420.49 541.21,416.72 537.17,416.72 C534.97,416.72 532.11,418.22 532.11,422.86 C532.11,425.99 533.64,430.05 537.81,430.05 C540.34,430.05 542.75,428.15 542.75,424 L542.76,423.98 Z" id="Shape" fill="#FFFFFF" fill-rule="nonzero"></path>
            <rect id="Rectangle-path" stroke="#FFFFFF" stroke-width="2.97" x="264.25" y="191.69" width="103.49" height="103.47"></rect>
            <rect id="Rectangle-path" fill="#FFFFFF" fill-rule="nonzero" x="314.57" y="240.03" width="2.85" height="54.67"></rect>
            <path d="M316.92,202.32 L316,201.64 L315.07,202.32 C309.82,206.23 306.8,211.82 306.8,217.66 C306.8,223.5 309.8,229.09 315.07,233 L316,233.68 L316.92,233 C322.17,229.09 325.19,223.5 325.19,217.66 C325.19,211.82 322.17,206.23 316.92,202.32 Z M316,229.79 C312.158341,226.941868 309.892947,222.44228 309.892947,217.66 C309.892947,212.87772 312.158341,208.378132 316,205.53 C319.837848,208.380616 322.100272,212.8793 322.100272,217.66 C322.100272,222.4407 319.837848,226.939384 316,229.79 Z" id="Shape" fill="#FFFFFF" fill-rule="nonzero"></path>
            <path d="M337.76,247.93 C335.586922,247.094355 333.27821,246.667193 330.95,246.67 C327.541548,246.697263 324.188766,247.537173 321.17,249.12 L320.03,249.71 L320.4,250.94 C321.97353,256.368905 325.983936,260.756326 331.25,262.81 C333.419376,263.646434 335.724962,264.073645 338.05,264.07 C341.461643,264.042787 344.817681,263.202921 347.84,261.62 L349,261 L348.63,259.78 C347.04549,254.35517 343.028244,249.975743 337.76,247.93 Z M338.05,260.98 C336.104557,260.986705 334.174917,260.63062 332.36,259.93 C328.389229,258.419961 325.262331,255.271197 323.78,251.29 C326.041473,250.29892 328.480959,249.77836 330.95,249.76 C332.898782,249.752285 334.831884,250.108383 336.65,250.81 C340.602888,252.347452 343.720132,255.486494 345.23,259.45 C342.968027,260.452789 340.524211,260.980354 338.05,261 L338.05,260.98 Z" id="Shape" fill="#FFFFFF" fill-rule="nonzero"></path>
            <path d="M330.15,243.41 C333.085944,243.424831 335.987602,242.778878 338.64,241.52 C343.943406,238.954415 347.729654,234.041925 348.86,228.26 L349.13,226.96 L347.92,226.45 C345.117006,225.233458 342.095591,224.600594 339.04,224.59 C336.100427,224.571257 333.194655,225.217364 330.54,226.48 C325.238396,229.045505 321.455256,233.958771 320.33,239.74 L320.06,241.03 L321.27,241.55 C324.074429,242.762024 327.094907,243.394692 330.15,243.41 Z M331.94,229.41 C334.157333,228.354939 336.584498,227.814809 339.04,227.83 C341.201081,227.836746 343.345172,228.212132 345.38,228.94 C344.206456,233.197735 341.239066,236.734514 337.25,238.63 C335.0311,239.680502 332.604987,240.220397 330.15,240.21 C327.989263,240.199387 325.845818,239.824115 323.81,239.1 C324.974779,234.832848 327.94398,231.286607 331.94,229.39 L331.94,229.41 Z" id="Shape" fill="#FFFFFF" fill-rule="nonzero"></path>
            <path d="M360.86,243.72 C358.551582,240.949093 355.131483,239.346907 351.525,239.346907 C347.918517,239.346907 344.498418,240.949093 342.19,243.72 L341.35,244.72 L342.18,245.72 C344.502797,248.471561 347.909277,250.074396 351.51,250.11 C355.102997,250.081645 358.505501,248.489915 360.83,245.75 L361.67,244.75 L360.86,243.72 Z M351.53,247 L351.53,248.49 L351.53,247 C349.27926,246.977269 347.114034,246.134645 345.44,244.63 C348.90245,241.485017 354.18755,241.485017 357.65,244.63 C355.965305,246.136673 353.790049,246.979051 351.53,247 Z" id="Shape" fill="#FFFFFF" fill-rule="nonzero"></path>
            <path d="M330.22,221.72 L331.41,221.77 L331.94,221.77 C335.546278,221.849927 339.017159,220.396155 341.49,217.77 C343.96688,215.024023 344.974934,211.255909 344.2,207.64 L343.97,206.47 L342.78,206.47 L342.25,206.47 C338.643722,206.390073 335.172841,207.843845 332.7,210.47 C330.242299,213.210239 329.239285,216.95854 330,220.56 L330.22,221.72 Z M334.91,212.45 C336.61373,210.64465 338.95054,209.569431 341.43,209.45 C341.62659,211.761363 340.846947,214.049525 339.28,215.76 C337.57876,217.568814 335.240471,218.644714 332.76,218.76 C332.568353,216.449245 333.347339,214.163012 334.91,212.45 Z" id="Shape" fill="#FFFFFF" fill-rule="nonzero"></path>
            <path d="M310.83,249.12 C307.807269,247.538163 304.451496,246.698363 301.04,246.67 C298.71179,246.667193 296.403078,247.094355 294.23,247.93 C288.962529,249.987042 284.952203,254.378071 283.38,259.81 L283,261 L284.14,261.59 C287.162319,263.172921 290.518357,264.012787 293.93,264.04 C296.25821,264.042807 298.566922,263.615645 300.74,262.78 C306.001342,260.722483 310.007202,256.335993 311.58,250.91 L311.95,249.68 L310.83,249.12 Z M299.63,259.93 C297.815339,260.631527 295.885527,260.987643 293.94,260.98 C291.467708,260.961881 289.024906,260.441339 286.76,259.45 C288.247931,255.472389 291.372854,252.325614 295.34,250.81 C297.158116,250.108383 299.091218,249.752285 301.04,249.76 C303.509041,249.77836 305.948527,250.29892 308.21,251.29 C306.727669,255.271197 303.600771,258.419961 299.63,259.93 Z" id="Shape" fill="#FFFFFF" fill-rule="nonzero"></path>
            <path d="M293.35,241.52 C296.002733,242.777904 298.904166,243.423806 301.84,243.41 C304.89518,243.395519 307.915822,242.762816 310.72,241.55 L311.93,241.03 L311.66,239.74 C310.534744,233.958771 306.751604,229.045505 301.45,226.48 C298.795345,225.217364 295.889573,224.571257 292.95,224.59 C289.897514,224.599431 286.879133,225.232372 284.08,226.45 L282.86,226.96 L283.13,228.26 C284.263288,234.040594 288.04863,238.951909 293.35,241.52 Z M292.95,227.81 C295.405502,227.794809 297.832667,228.334939 300.05,229.39 C304.041568,231.282249 307.010079,234.820364 308.18,239.08 C306.144378,239.804859 304.000806,240.180154 301.84,240.19 C299.385013,240.200397 296.9589,239.660502 294.74,238.61 C290.750934,236.714514 287.783544,233.177735 286.61,228.92 C288.660641,228.186508 290.822125,227.811039 293,227.81 L292.95,227.81 Z" id="Shape" fill="#FFFFFF" fill-rule="nonzero"></path>
            <path d="M289.81,245.64 L290.64,244.64 L289.8,243.64 C287.491582,240.869093 284.071483,239.266907 280.465,239.266907 C276.858517,239.266907 273.438418,240.869093 271.13,243.64 L270.3,244.64 L271.14,245.64 C273.467601,248.381465 276.873802,249.973216 280.47,250 C284.069699,249.97612 287.480126,248.384101 289.81,245.64 Z M280.48,247.04 C278.228767,247.023372 276.060517,246.188062 274.38,244.69 C277.837336,241.541701 283.122664,241.541701 286.58,244.69 C284.894615,246.175152 282.726372,246.996241 280.48,247 L280.48,247.04 Z" id="Shape" fill="#FFFFFF" fill-rule="nonzero"></path>
            <path d="M300.05,221.77 L300.58,221.77 L301.77,221.72 L302,220.56 C302.771567,216.944176 301.76392,213.177584 299.29,210.43 C296.685558,207.673541 292.995829,206.209363 289.21,206.43 L288.02,206.43 L287.79,207.6 C287.015066,211.215909 288.02312,214.984023 290.5,217.73 C292.965762,220.370906 296.437588,221.839616 300.05,221.77 Z M290.56,209.48 C293.039964,209.597364 295.377512,210.672922 297.08,212.48 C298.642661,214.193012 299.421647,216.479245 299.23,218.79 C296.749529,218.674714 294.41124,217.598814 292.71,215.79 C291.143053,214.079525 290.36341,211.791363 290.56,209.48 Z" id="Shape" fill="#FFFFFF" fill-rule="nonzero"></path>
            <polygon id="Shape" fill="#FFFFFF" fill-rule="nonzero" points="30.26 386.51 35.18 352.14 35.74 352.14 49.74 380.34 63.57 352.14 64.12 352.14 69.12 386.51 65.68 386.51 62.29 361.93 50.13 386.51 49.26 386.51 37 361.74 33.62 386.51"></polygon>
            <path d="M94.85,351.27 C99.7362389,351.143939 104.460415,353.027103 107.92,356.48 C113.1202,361.64553 114.684874,369.440672 111.880858,376.212842 C109.076842,382.985011 102.459685,387.392467 95.13,387.37 C90.2931293,387.478191 85.6259162,385.58598 82.23,382.14 C78.8074708,378.823059 76.9137196,374.235329 77,369.47 C76.9785121,366.252154 77.8063711,363.085593 79.4,360.29 C82.5580867,354.711751 88.4798502,351.271087 94.89,351.29 L94.85,351.27 Z M95,354.61 C89.7993366,354.672681 85.0206433,357.484349 82.44,362 C81.1490844,364.290279 80.4866987,366.881173 80.52,369.51 C80.5066703,373.355324 82.0276354,377.047143 84.7457674,379.767152 C87.4638994,382.487162 91.1546681,384.010675 95,384 C97.5977413,384.017148 100.153935,383.347915 102.41,382.06 C104.636179,380.814034 106.474034,378.976179 107.72,376.75 C109.001871,374.467412 109.660589,371.887721 109.63,369.27 C109.664587,366.677148 109.005139,364.12222 107.72,361.87 C106.439103,359.652632 104.583983,357.821694 102.35,356.57 C100.118084,355.27421 97.5807687,354.597592 95,354.61 Z" id="Shape" fill="#FFFFFF" fill-rule="nonzero"></path>
            <path d="M122.76,386.51 L122.76,352.14 L129.88,352.14 C135.02,352.14 138.75,352.55 141.07,353.37 C144.28994,354.452688 147.047014,356.596295 148.89,359.45 C150.82535,362.530033 151.806502,366.113673 151.71,369.75 C151.775541,372.923005 151.006554,376.057575 149.48,378.84 C148.153574,381.297522 146.137522,383.313574 143.68,384.64 C141.3,385.88 137.97,386.51 133.68,386.51 L122.76,386.51 Z M126.05,383.26 L130.05,383.26 C134.803333,383.26 138.1,382.963333 139.94,382.37 C142.431515,381.596471 144.583808,379.994601 146.04,377.83 C147.564884,375.446467 148.335116,372.658296 148.25,369.83 C148.336996,366.818035 147.499436,363.851678 145.85,361.33 C144.248563,358.983319 141.873634,357.273795 139.14,356.5 C136.986667,355.833333 133.443333,355.5 128.51,355.5 L126.08,355.5 L126.05,383.26 Z" id="Shape" fill="#FFFFFF" fill-rule="nonzero"></path>
            <polygon id="Shape" fill="#FFFFFF" fill-rule="nonzero" points="161.07 352.14 180.77 352.14 180.77 355.5 164.5 355.5 164.5 366.27 180.63 366.27 180.63 369.64 164.5 369.64 164.5 383.14 180.63 383.14 180.63 386.51 161.07 386.51"></polygon>
            <path d="M185.83,380.1 L188.75,378.35 C190.81,382.136667 193.186667,384.03 195.88,384.03 C197.013721,384.033515 198.130536,383.75517 199.13,383.22 C201.017973,382.265195 202.214309,380.33562 202.23,378.22 C202.204093,376.997074 201.798729,375.812432 201.07,374.83 C199.381943,372.719562 197.398165,370.86377 195.18,369.32 C193.215743,367.972129 191.419666,366.394267 189.83,364.62 C188.650737,363.119667 188.006631,361.268302 188,359.36 C187.986503,357.924459 188.359545,356.511735 189.08,355.27 C189.789662,354.039683 190.828645,353.03187 192.08,352.36 C193.383565,351.651234 194.846272,351.286417 196.33,351.3 C197.922437,351.294514 199.488251,351.708385 200.87,352.5 C202.644597,353.658756 204.165339,355.165891 205.34,356.93 L202.54,359.06 C201.649472,357.740171 200.528189,356.591788 199.23,355.67 C198.326614,355.120906 197.287088,354.836769 196.23,354.85 C194.977351,354.802142 193.757301,355.255612 192.84,356.11 C191.971943,356.908503 191.487735,358.040749 191.51,359.22 C191.512687,359.971518 191.672793,360.714136 191.98,361.4 C192.406108,362.257972 192.985657,363.030704 193.69,363.68 C194.143333,364.12 195.623333,365.266667 198.13,367.12 C200.488158,368.715403 202.557688,370.700393 204.25,372.99 C205.298001,374.509688 205.875342,376.304314 205.91,378.15 C205.92056,380.616959 204.889236,382.973753 203.07,384.64 C201.238897,386.456796 198.748934,387.452781 196.17,387.4 C194.152695,387.420762 192.175049,386.839307 190.49,385.73 C188.501905,384.260253 186.902337,382.327728 185.83,380.1 Z" id="Shape" fill="#FFFFFF" fill-rule="nonzero"></path>
            <polygon id="Shape" fill="#FFFFFF" fill-rule="nonzero" points="212.48 355.5 212.48 352.14 231.32 352.14 231.32 355.5 223.65 355.5 223.65 386.5 220.15 386.5 220.15 355.5"></polygon>
            <path d="M255.32,351.27 C260.206028,351.145118 264.929757,353.028104 268.39,356.48 C273.5902,361.64553 275.154874,369.440672 272.350858,376.212842 C269.546842,382.985011 262.929685,387.392467 255.6,387.37 C250.760557,387.476193 246.091012,385.584503 242.69,382.14 C239.259483,378.826136 237.355167,374.239124 237.43,369.47 C237.408512,366.252154 238.236371,363.085593 239.83,360.29 C241.364595,357.530896 243.622159,355.242217 246.36,353.67 C249.077756,352.081823 252.172269,351.252936 255.32,351.27 Z M255.47,354.61 C252.923754,354.612582 250.425588,355.303638 248.24,356.61 C246.008656,357.895031 244.16418,359.756777 242.9,362 C241.609084,364.290279 240.946699,366.881173 240.98,369.51 C240.972014,373.35543 242.496069,377.04566 245.215205,379.764795 C247.93434,382.483931 251.62457,384.007986 255.47,384 C258.067741,384.017148 260.623935,383.347915 262.88,382.06 C265.106179,380.814034 266.944034,378.976179 268.19,376.75 C269.471871,374.467412 270.130589,371.887721 270.1,369.27 C270.134587,366.677148 269.475139,364.12222 268.19,361.87 C266.909103,359.652632 265.053983,357.821694 262.82,356.57 C260.588084,355.27421 258.050769,354.597592 255.47,354.61 Z" id="Shape" fill="#FFFFFF" fill-rule="nonzero"></path>
            <polygon id="Shape" fill="#FFFFFF" fill-rule="nonzero" points="299.15 352.14 302.59 352.14 302.59 383.19 315.81 383.19 315.81 386.51 299.15 386.51"></polygon>
            <path d="M338,352.14 L354,386.51 L350.3,386.51 L344.89,375.2 L330.09,375.2 L324.73,386.51 L320.9,386.51 L337.14,352.14 L338,352.14 Z M337.57,359.44 L331.68,371.88 L343.43,371.88 L337.57,359.44 Z" id="Shape" fill="#FFFFFF" fill-rule="nonzero"></path>
            <polygon id="Shape" fill="#FFFFFF" fill-rule="nonzero" points="362 352.14 379.22 352.14 379.22 355.5 365.45 355.5 365.45 366.27 379.24 366.27 379.24 369.64 365.45 369.64 365.45 386.51 362 386.51"></polygon>
            <path d="M388,352.14 L391.44,352.14 L391.44,372.88 C391.406042,374.418057 391.452773,375.956838 391.58,377.49 C391.701132,378.701732 392.109048,379.867205 392.77,380.89 C393.508616,381.896497 394.502968,382.687145 395.65,383.18 C396.864925,383.774228 398.197587,384.0886 399.55,384.1 C400.679338,384.10018 401.795177,383.854491 402.82,383.38 C403.829804,382.914149 404.724397,382.231254 405.44,381.38 C406.165981,380.462947 406.6907,379.403287 406.98,378.27 C407.282787,376.493641 407.400084,374.690617 407.33,372.89 L407.33,352.14 L410.76,352.14 L410.76,372.88 C410.831407,375.394238 410.528081,377.905097 409.86,380.33 C409.198222,382.305845 407.944929,384.030432 406.27,385.27 C404.393367,386.695516 402.085722,387.436503 399.73,387.37 C397.209498,387.434875 394.728054,386.73784 392.61,385.37 C390.692606,384.149188 389.274116,382.283875 388.61,380.11 C388.074985,377.732582 387.859751,375.294379 387.97,372.86 L388,352.14 Z" id="Shape" fill="#FFFFFF" fill-rule="nonzero"></path>
            <polygon id="Shape" fill="#FFFFFF" fill-rule="nonzero" points="421.93 352.14 441.63 352.14 441.63 355.5 425.37 355.5 425.37 366.27 441.49 366.27 441.49 369.64 425.37 369.64 425.37 383.14 441.49 383.14 441.49 386.51 421.93 386.51"></polygon>
            <polygon id="Shape" fill="#FFFFFF" fill-rule="nonzero" points="450.27 386.51 450.27 352.14 451 352.14 473.87 378.48 473.87 352.14 477.26 352.14 477.26 386.51 476.49 386.51 453.8 360.51 453.8 386.51"></polygon>
            <polygon id="Shape" fill="#FFFFFF" fill-rule="nonzero" points="484.92 355.5 484.92 352.14 503.75 352.14 503.75 355.5 496.09 355.5 496.09 386.5 492.58 386.5 492.58 355.5"></polygon>
            <polygon id="Shape" fill="#FFFFFF" fill-rule="nonzero" points="511.41 352.14 531.11 352.14 531.11 355.5 514.84 355.5 514.84 366.27 531 366.27 531 369.64 514.84 369.64 514.84 383.14 531 383.14 531 386.51 511.41 386.51"></polygon>
            <path d="M557,362.88 L553.71,362.88 C553.695013,359.759604 554.917659,356.760526 557.11,354.54 C559.21351,352.396228 562.107115,351.213467 565.11,351.27 C567.897249,351.172017 570.604081,352.214041 572.606141,354.155719 C574.608201,356.097396 575.732605,358.771058 575.72,361.56 C575.724984,363.475756 575.243254,365.361385 574.32,367.04 C572.774995,369.545893 570.953592,371.870446 568.89,373.97 L560.33,383.19 L576.18,383.19 L576.18,386.51 L552.89,386.51 L566,372.32 C567.935493,370.377277 569.677057,368.250559 571.2,365.97 C571.983958,364.647009 572.39838,363.137821 572.4,361.6 C572.417967,359.703174 571.633425,357.887105 570.24,356.6 C568.829864,355.219692 566.922769,354.466227 564.95,354.51 C562.897413,354.452372 560.912942,355.249058 559.47,356.71 C557.930652,358.402197 557.05361,360.593026 557,362.88 Z" id="Shape" fill="#FFFFFF" fill-rule="nonzero"></path>
            <path d="M598.24,351.27 L601.06,353.12 L591.77,367.18 C592.898174,366.781347 594.083607,366.568577 595.28,366.55 C597.934586,366.504975 600.481855,367.596662 602.28,369.55 C604.171661,371.493816 605.199198,374.11854 605.13,376.83 C605.1557,378.7077 604.679273,380.55817 603.75,382.19 C602.825271,383.79807 601.471483,385.117234 599.84,386 C598.168429,386.932999 596.284305,387.418669 594.37,387.41 C592.529901,387.423537 590.718854,386.95094 589.12,386.04 C587.518903,385.140878 586.202307,383.810423 585.32,382.2 C584.408863,380.582619 583.933345,378.756353 583.94,376.9 C583.96465,375.385252 584.252259,373.8863 584.79,372.47 C585.589717,370.491142 586.616599,368.611881 587.85,366.87 L598.24,351.27 Z M594.46,369.57 C591.016735,369.579231 588.059137,372.01867 587.39495,375.397282 C586.730764,378.775893 588.544839,382.153374 591.728376,383.46534 C594.911912,384.777305 598.5789,383.65862 600.487999,380.79305 C602.397099,377.927479 602.016988,374.112539 599.58,371.68 C598.235919,370.302792 596.384145,369.539658 594.46,369.57 Z" id="Shape" fill="#FFFFFF" fill-rule="nonzero"></path>
        </g>
    </g>
</svg>